<svg width="1920" height="1080" viewBox="0 0 1920 1080" fill="none" xmlns="http://www.w3.org/2000/svg">
<rect width="1920" height="1080" fill="#E5E5E5"/>
<rect width="1920" height="1080" fill="#F6E0F8"/>
<path d="M631.352 483.4C649.752 473 666.652 461.1 682.052 447.7C697.452 434.1 709.652 420.1 718.652 405.7C727.852 391.3 732.452 377.7 732.452 364.9C732.452 353.9 729.152 345.2 722.552 338.8C715.952 332.2 706.552 328.9 694.352 328.9C682.952 328.9 673.152 331.2 664.952 335.8C656.752 340.2 649.152 345.7 642.152 352.3L632.552 338.8C639.552 330.6 649.552 323.2 662.552 316.6C675.552 309.8 689.452 306.4 704.252 306.4C718.252 306.4 730.052 309 739.652 314.2C749.252 319.2 756.352 325.8 760.952 334C765.552 342.2 767.852 351.2 767.852 361C767.852 380.8 758.352 401.2 739.352 422.2C720.352 443 696.552 461.7 667.952 478.3L760.952 471.4L771.452 445.6L786.752 448.6L778.952 496H635.852L631.352 483.4ZM891.649 498.7C866.049 498.7 846.849 489.9 834.049 472.3C821.449 454.5 815.149 431.6 815.149 403.6C815.149 384 818.749 366.9 825.949 352.3C833.149 337.5 842.949 326.2 855.349 318.4C867.749 310.6 881.349 306.7 896.149 306.7C922.149 306.7 941.149 315.1 953.149 331.9C965.149 348.5 971.149 371.3 971.149 400.3C971.149 419.7 967.649 436.9 960.649 451.9C953.849 466.7 944.349 478.2 932.149 486.4C920.149 494.6 906.649 498.7 891.649 498.7ZM892.849 483.4C922.649 483.4 937.549 456.7 937.549 403.3C937.549 377.3 934.149 357.3 927.349 343.3C920.749 329.3 909.549 322.3 893.749 322.3C878.349 322.3 866.949 329 859.549 342.4C852.149 355.6 848.449 374.6 848.449 399.4C848.449 424.8 851.949 445.2 858.949 460.6C866.149 475.8 877.449 483.4 892.849 483.4ZM1003.42 483.4C1021.82 473 1038.72 461.1 1054.12 447.7C1069.52 434.1 1081.72 420.1 1090.72 405.7C1099.92 391.3 1104.52 377.7 1104.52 364.9C1104.52 353.9 1101.22 345.2 1094.62 338.8C1088.02 332.2 1078.62 328.9 1066.42 328.9C1055.02 328.9 1045.22 331.2 1037.02 335.8C1028.82 340.2 1021.22 345.7 1014.22 352.3L1004.62 338.8C1011.62 330.6 1021.62 323.2 1034.62 316.6C1047.62 309.8 1061.52 306.4 1076.32 306.4C1090.32 306.4 1102.12 309 1111.72 314.2C1121.32 319.2 1128.42 325.8 1133.02 334C1137.62 342.2 1139.92 351.2 1139.92 361C1139.92 380.8 1130.42 401.2 1111.42 422.2C1092.42 443 1068.62 461.7 1040.02 478.3L1133.02 471.4L1143.52 445.6L1158.82 448.6L1151.02 496H1007.92L1003.42 483.4ZM1225.02 341.2C1220.82 342.8 1214.22 344.7 1205.22 346.9C1196.22 349.1 1188.92 350.6 1183.32 351.4L1180.32 334.6C1190.52 332.4 1200.92 328.7 1211.52 323.5C1222.32 318.3 1231.32 312.6 1238.52 306.4H1238.82L1257.12 309.4V478.6L1294.32 481.3V496H1186.32V481.3L1225.02 478.6V341.2Z" fill="black"/>
<path d="M317.713 810.2L272.713 732L260.713 729.4V719.4H312.913V729.4L297.113 731.8L325.313 785.4L331.713 800.6L338.913 785.4L365.513 731.8L349.113 729.4V719.4H394.713V729.4L381.713 731.8L339.913 810V856L362.313 858.2V868H295.913V858.2L317.713 856.2V810.2ZM450.024 870.2C433.891 870.2 421.558 864.933 413.024 854.4C404.624 843.867 400.424 829.8 400.424 812.2C400.424 800.6 402.624 790.4 407.024 781.6C411.424 772.8 417.558 766 425.424 761.2C433.424 756.4 442.491 754 452.624 754C465.024 754 474.624 757.467 481.424 764.4C488.358 771.2 492.024 781 492.424 793.8C492.424 801.933 491.958 808.133 491.024 812.4H422.224C422.491 825.6 425.558 836.267 431.424 844.4C437.291 852.4 445.624 856.4 456.424 856.4C461.758 856.4 467.291 855.467 473.024 853.6C478.891 851.6 483.424 849.267 486.624 846.6L490.424 855.4C486.558 859.4 480.824 862.867 473.224 865.8C465.624 868.733 457.891 870.2 450.024 870.2ZM470.424 801.8C470.824 799 471.024 796.133 471.024 793.2C470.891 784.533 469.024 777.733 465.424 772.8C461.958 767.733 456.424 765.2 448.824 765.2C441.091 765.2 434.891 768 430.224 773.6C425.691 779.2 423.091 788.6 422.424 801.8H470.424ZM509.613 838C509.613 825.467 515.88 816.267 528.413 810.4C540.947 804.4 556.813 801.2 576.013 800.8V795.2C576.013 788.933 575.347 784 574.013 780.4C572.68 776.8 570.347 774.2 567.013 772.6C563.813 770.867 559.213 770 553.213 770C546.413 770 540.28 771 534.813 773C529.48 774.867 524.147 777.2 518.813 780L513.813 769.6C515.547 768.133 518.747 766.2 523.413 763.8C528.08 761.4 533.48 759.267 539.613 757.4C545.747 755.533 551.88 754.6 558.013 754.6C567.48 754.6 574.947 755.933 580.413 758.6C586.013 761.133 590.013 765.267 592.413 771C594.813 776.733 596.013 784.4 596.013 794V858.2H607.813V867C605.147 867.667 601.747 868.333 597.613 869C593.613 869.667 590.08 870 587.013 870C583.28 870 580.747 869.4 579.413 868.2C578.08 867.133 577.413 864.667 577.413 860.8V854.2C573.413 858.2 568.48 861.867 562.613 865.2C556.88 868.533 550.347 870.2 543.013 870.2C533.413 870.2 525.413 867.467 519.013 862C512.747 856.4 509.613 848.4 509.613 838ZM551.613 856.6C555.08 856.6 559.08 855.533 563.613 853.4C568.147 851.267 572.28 848.733 576.013 845.8V811.4C561.48 811.4 550.48 813.667 543.013 818.2C535.68 822.6 532.013 828.4 532.013 835.6C532.013 842.8 533.747 848.133 537.213 851.6C540.813 854.933 545.613 856.6 551.613 856.6ZM622.123 858.2L637.123 857V772.4L622.723 768.8V758L650.323 754.4H650.723L655.123 758V761.6L654.523 777.2H655.123C656.456 774.933 658.856 772 662.323 768.4C665.789 764.8 670.256 761.533 675.723 758.6C681.189 755.533 687.123 754 693.523 754C696.189 754 698.389 754.333 700.123 755V777.4C699.189 776.733 697.656 776.133 695.523 775.6C693.523 774.933 691.256 774.6 688.723 774.6C677.656 774.6 667.389 778 657.923 784.8V856.8L683.323 858.4V868H622.123V858.2ZM784.385 737C780.118 737 776.918 735.8 774.785 733.4C772.652 731 771.585 727.933 771.585 724.2C771.585 719.933 772.852 716.4 775.385 713.6C778.052 710.8 781.652 709.4 786.185 709.4C790.718 709.4 794.052 710.6 796.185 713C798.318 715.4 799.385 718.467 799.385 722.2C799.385 726.733 798.052 730.333 795.385 733C792.852 735.667 789.252 737 784.585 737H784.385ZM776.385 772.4L761.185 768.8V758.2L792.185 754.4H792.585L797.185 758V856.6L813.185 858.2V868H760.185V858.2L776.385 856.4V772.4ZM839.387 772.4L824.987 768.8V758L853.587 754.4H854.187L858.387 758V766.4L858.187 771.2C862.987 766.933 869.32 763.067 877.187 759.6C885.053 756.133 892.587 754.4 899.787 754.4C908.187 754.4 914.653 756 919.187 759.2C923.853 762.4 927.12 767.333 928.987 774C930.853 780.533 931.787 789.4 931.787 800.6V856.6L945.787 858V868H898.387V858.2L910.787 856.6V800.4C910.787 792.533 910.253 786.4 909.187 782C908.12 777.467 906.12 774.133 903.187 772C900.253 769.733 895.987 768.6 890.387 768.6C885.587 768.6 880.453 769.8 874.987 772.2C869.52 774.6 864.653 777.4 860.387 780.6V856.4L873.987 858.2V868H826.787V858.2L839.387 856.4V772.4ZM1008.06 858.2L1023.06 857V772.4L1008.66 768.8V758L1036.26 754.4H1036.66L1041.06 758V761.6L1040.46 777.2H1041.06C1042.39 774.933 1044.79 772 1048.26 768.4C1051.73 764.8 1056.19 761.533 1061.66 758.6C1067.13 755.533 1073.06 754 1079.46 754C1082.13 754 1084.33 754.333 1086.06 755V777.4C1085.13 776.733 1083.59 776.133 1081.46 775.6C1079.46 774.933 1077.19 774.6 1074.66 774.6C1063.59 774.6 1053.33 778 1043.86 784.8V856.8L1069.26 858.4V868H1008.06V858.2ZM1148.46 870.2C1132.33 870.2 1120 864.933 1111.46 854.4C1103.06 843.867 1098.86 829.8 1098.86 812.2C1098.86 800.6 1101.06 790.4 1105.46 781.6C1109.86 772.8 1116 766 1123.86 761.2C1131.86 756.4 1140.93 754 1151.06 754C1163.46 754 1173.06 757.467 1179.86 764.4C1186.8 771.2 1190.46 781 1190.86 793.8C1190.86 801.933 1190.4 808.133 1189.46 812.4H1120.66C1120.93 825.6 1124 836.267 1129.86 844.4C1135.73 852.4 1144.06 856.4 1154.86 856.4C1160.2 856.4 1165.73 855.467 1171.46 853.6C1177.33 851.6 1181.86 849.267 1185.06 846.6L1188.86 855.4C1185 859.4 1179.26 862.867 1171.66 865.8C1164.06 868.733 1156.33 870.2 1148.46 870.2ZM1168.86 801.8C1169.26 799 1169.46 796.133 1169.46 793.2C1169.33 784.533 1167.46 777.733 1163.86 772.8C1160.4 767.733 1154.86 765.2 1147.26 765.2C1139.53 765.2 1133.33 768 1128.66 773.6C1124.13 779.2 1121.53 788.6 1120.86 801.8H1168.86ZM1198.85 757H1245.25V766.4L1231.05 769L1251.25 826.6L1259.65 852L1266.85 827.4L1287.05 769L1273.45 766.4V757H1314.05V766.4L1303.65 769L1265.05 869.6H1248.05L1207.85 769L1198.85 766.4V757ZM1345.32 737C1341.06 737 1337.86 735.8 1335.72 733.4C1333.59 731 1332.52 727.933 1332.52 724.2C1332.52 719.933 1333.79 716.4 1336.32 713.6C1338.99 710.8 1342.59 709.4 1347.12 709.4C1351.66 709.4 1354.99 710.6 1357.12 713C1359.26 715.4 1360.32 718.467 1360.32 722.2C1360.32 726.733 1358.99 730.333 1356.32 733C1353.79 735.667 1350.19 737 1345.52 737H1345.32ZM1337.32 772.4L1322.12 768.8V758.2L1353.12 754.4H1353.52L1358.12 758V856.6L1374.12 858.2V868H1321.12V858.2L1337.32 856.4V772.4ZM1437.52 870.2C1421.39 870.2 1409.06 864.933 1400.52 854.4C1392.12 843.867 1387.92 829.8 1387.92 812.2C1387.92 800.6 1390.12 790.4 1394.52 781.6C1398.92 772.8 1405.06 766 1412.92 761.2C1420.92 756.4 1429.99 754 1440.12 754C1452.52 754 1462.12 757.467 1468.92 764.4C1475.86 771.2 1479.52 781 1479.92 793.8C1479.92 801.933 1479.46 808.133 1478.52 812.4H1409.72C1409.99 825.6 1413.06 836.267 1418.92 844.4C1424.79 852.4 1433.12 856.4 1443.92 856.4C1449.26 856.4 1454.79 855.467 1460.52 853.6C1466.39 851.6 1470.92 849.267 1474.12 846.6L1477.92 855.4C1474.06 859.4 1468.32 862.867 1460.72 865.8C1453.12 868.733 1445.39 870.2 1437.52 870.2ZM1457.92 801.8C1458.32 799 1458.52 796.133 1458.52 793.2C1458.39 784.533 1456.52 777.733 1452.92 772.8C1449.46 767.733 1443.92 765.2 1436.32 765.2C1428.59 765.2 1422.39 768 1417.72 773.6C1413.19 779.2 1410.59 788.6 1409.92 801.8H1457.92ZM1486.71 757H1533.31V766.4L1518.11 768.8L1534.71 827.6L1540.51 853L1546.31 827.4L1565.51 757H1585.11L1604.91 827.4L1610.71 853.2L1617.11 827.6L1633.31 769L1618.11 766.4V757H1658.71V766.4L1648.11 769L1617.11 869.6H1598.31L1577.11 799L1571.91 774.2L1567.71 799L1547.51 869.6H1528.91L1496.91 768.8L1486.71 766.4V757Z" fill="black"/>
</svg>
