<svg width="1920" height="1080" viewBox="0 0 1920 1080" fill="none" xmlns="http://www.w3.org/2000/svg">
<rect width="1920" height="1080" fill="#EBF8E8"/>
<path d="M90.58 395.66L77.56 393.98V386.98H118.72V393.98L105.7 395.66V482.74L118.72 484.28V491H77.7V484.14L90.58 482.74V395.66ZM132.625 484.14L141.165 482.88V424.08L131.085 421.56V414L151.105 411.48L153.625 413.3L154.465 418.9L154.325 423.38C157.592 420.393 162.025 417.687 167.625 415.26C173.318 412.74 178.405 411.48 182.885 411.48C187.925 411.48 191.985 412.32 195.065 414C198.145 415.68 200.478 418.293 202.065 421.84C205.052 419.32 209.205 416.987 214.525 414.84C219.938 412.6 224.978 411.48 229.645 411.48C235.432 411.48 239.958 412.6 243.225 414.84C246.492 416.987 248.778 420.393 250.085 425.06C251.485 429.633 252.185 435.793 252.185 443.54V482.88L262.265 484.14V491H228.945V484.14L237.625 482.88V443.96C237.625 438.547 237.205 434.253 236.365 431.08C235.618 427.813 234.125 425.387 231.885 423.8C229.738 422.213 226.612 421.42 222.505 421.42C219.425 421.42 216.158 422.12 212.705 423.52C209.252 424.827 206.312 426.413 203.885 428.28C204.725 431.92 205.145 437.1 205.145 443.82V482.88L215.085 484.14V491H181.205V484.14L190.445 482.88V443.68C190.445 438.08 190.072 433.74 189.325 430.66C188.672 427.58 187.365 425.293 185.405 423.8C183.445 422.213 180.458 421.42 176.445 421.42C173.085 421.42 169.492 422.26 165.665 423.94C161.932 425.62 158.665 427.58 155.865 429.82V482.88L165.245 484.14V491H132.625V484.14ZM347.821 449.42C347.821 457.353 346.188 464.633 342.921 471.26C339.655 477.793 334.988 482.973 328.921 486.8C322.855 490.627 315.761 492.54 307.641 492.54C305.401 492.54 302.975 492.353 300.361 491.98C297.748 491.607 295.648 491.14 294.061 490.58L294.481 502.34V516.48L309.041 518.02V524.88H269.981V518.02L280.061 516.48V424.08L269.841 421.56V414L289.721 411.48H290.001L292.941 414V422.26C295.741 419.18 299.195 416.567 303.301 414.42C307.501 412.273 312.168 411.2 317.301 411.2C322.808 411.2 327.848 412.553 332.421 415.26C337.088 417.967 340.821 422.167 343.621 427.86C346.421 433.553 347.821 440.74 347.821 449.42ZM311.561 421C308.015 421 304.701 421.747 301.621 423.24C298.541 424.733 296.161 426.367 294.481 428.14V480.92C295.135 482.04 296.768 483.067 299.381 484C302.088 484.84 305.028 485.26 308.201 485.26C315.388 485.26 321.175 482.413 325.561 476.72C330.041 471.027 332.281 462.44 332.281 450.96C332.281 440.88 330.321 433.367 326.401 428.42C322.575 423.473 317.628 421 311.561 421ZM423.691 492.26C421.078 492.26 419.118 491.747 417.811 490.72C416.598 489.693 415.991 488.013 415.991 485.68V480.92C412.911 484 409.038 486.707 404.371 489.04C399.798 491.373 395.178 492.54 390.511 492.54C381.831 492.54 375.671 490.207 372.031 485.54C368.391 480.873 366.571 473.173 366.571 462.44V421.84L358.731 419.6V413.44L378.331 411.62H378.471L381.131 413.3V461.32C381.131 466.733 381.505 470.98 382.251 474.06C383.091 477.047 384.491 479.287 386.451 480.78C388.505 482.18 391.445 482.88 395.271 482.88C399.005 482.88 402.505 482.087 405.771 480.5C409.038 478.913 411.885 477.047 414.311 474.9V421.84L404.231 419.6V413.44L425.511 411.62H425.651L428.871 413.3V483.86H437.271L437.131 490.16C434.518 490.813 432.231 491.327 430.271 491.7C428.405 492.073 426.211 492.26 423.691 492.26ZM458.668 386.56L447.328 385.02V379L469.868 376.34H470.148L473.228 378.44V483.02L485.128 484.14V491H447.328V484.14L458.668 482.88V386.56ZM508.09 479.8C509.023 481.2 510.983 482.46 513.97 483.58C517.05 484.7 520.27 485.26 523.63 485.26C528.95 485.26 532.87 484.233 535.39 482.18C537.91 480.127 539.17 477.28 539.17 473.64C539.17 471.12 538.376 468.927 536.79 467.06C535.203 465.193 532.963 463.56 530.07 462.16C527.27 460.667 523.21 458.893 517.89 456.84C510.703 454.133 505.43 450.913 502.07 447.18C498.803 443.353 497.17 438.36 497.17 432.2C497.17 428.093 498.383 424.5 500.81 421.42C503.33 418.34 506.736 415.96 511.03 414.28C515.416 412.507 520.27 411.62 525.59 411.62C529.883 411.62 533.616 411.947 536.79 412.6C540.056 413.253 542.67 413.907 544.63 414.56C546.59 415.213 547.896 415.633 548.55 415.82V433.18H540.01L537.21 422.82C536.65 421.7 535.156 420.767 532.73 420.02C530.303 419.18 527.596 418.76 524.61 418.76C520.41 418.76 517.003 419.693 514.39 421.56C511.87 423.427 510.61 425.947 510.61 429.12C510.61 431.92 511.263 434.253 512.57 436.12C513.97 437.893 515.696 439.34 517.75 440.46C519.803 441.58 522.603 442.887 526.15 444.38L528.95 445.5C534.176 447.553 538.423 449.513 541.69 451.38C544.956 453.247 547.663 455.72 549.81 458.8C552.05 461.787 553.17 465.473 553.17 469.86C553.17 476.767 550.463 482.273 545.05 486.38C539.73 490.487 532.403 492.54 523.07 492.54C518.496 492.54 513.69 491.933 508.65 490.72C503.703 489.413 499.643 488.107 496.47 486.8V468.88H505.57L508.09 479.8ZM582.273 399.3C579.286 399.3 577.046 398.46 575.553 396.78C574.06 395.1 573.313 392.953 573.313 390.34C573.313 387.353 574.2 384.88 575.973 382.92C577.84 380.96 580.36 379.98 583.533 379.98C586.706 379.98 589.04 380.82 590.533 382.5C592.026 384.18 592.773 386.327 592.773 388.94C592.773 392.113 591.84 394.633 589.973 396.5C588.2 398.367 585.68 399.3 582.413 399.3H582.273ZM576.673 424.08L566.033 421.56V414.14L587.733 411.48H588.013L591.233 414V483.02L602.433 484.14V491H565.333V484.14L576.673 482.88V424.08ZM612.374 451.94C612.374 443.54 614.101 436.26 617.554 430.1C621.008 423.94 625.534 419.273 631.134 416.1C636.828 412.833 642.894 411.2 649.334 411.2C661.094 411.2 669.914 414.933 675.794 422.4C681.768 429.867 684.754 439.667 684.754 451.8C684.754 460.293 683.028 467.62 679.574 473.78C676.121 479.94 671.548 484.607 665.854 487.78C660.254 490.953 654.234 492.54 647.794 492.54C636.034 492.54 627.168 488.807 621.194 481.34C615.314 473.873 612.374 464.073 612.374 451.94ZM648.634 484.56C655.074 484.56 660.021 481.9 663.474 476.58C666.928 471.26 668.654 463.373 668.654 452.92C668.654 442.56 667.068 434.347 663.894 428.28C660.721 422.213 655.634 419.18 648.634 419.18C642.194 419.18 637.201 421.84 633.654 427.16C630.201 432.48 628.474 440.367 628.474 450.82C628.474 461.18 630.108 469.393 633.374 475.46C636.641 481.527 641.728 484.56 648.634 484.56ZM705.95 424.08L695.87 421.56V414L715.89 411.48H716.31L719.25 414V419.88L719.11 423.24C722.47 420.253 726.903 417.547 732.41 415.12C737.917 412.693 743.19 411.48 748.23 411.48C754.11 411.48 758.637 412.6 761.81 414.84C765.077 417.08 767.363 420.533 768.67 425.2C769.977 429.773 770.63 435.98 770.63 443.82V483.02L780.43 484V491H747.25V484.14L755.93 483.02V443.68C755.93 438.173 755.557 433.88 754.81 430.8C754.063 427.627 752.663 425.293 750.61 423.8C748.557 422.213 745.57 421.42 741.65 421.42C738.29 421.42 734.697 422.26 730.87 423.94C727.043 425.62 723.637 427.58 720.65 429.82V482.88L730.17 484.14V491H697.13V484.14L705.95 482.88V424.08ZM830.481 438.6C828.775 438.6 827.495 438.12 826.641 437.16C825.788 436.2 825.361 434.973 825.361 433.48C825.361 431.773 825.868 430.36 826.881 429.24C827.948 428.12 829.388 427.56 831.201 427.56C833.015 427.56 834.348 428.04 835.201 429C836.055 429.96 836.481 431.187 836.481 432.68C836.481 434.493 835.948 435.933 834.881 437C833.868 438.067 832.428 438.6 830.561 438.6H830.481ZM827.281 452.76L821.201 451.32V447.08L833.601 445.56H833.761L835.601 447V486.44L842.001 487.08V491H820.801V487.08L827.281 486.36V452.76ZM855.122 484.6C855.655 485.4 856.775 486.12 858.482 486.76C860.242 487.4 862.082 487.72 864.002 487.72C867.042 487.72 869.282 487.133 870.722 485.96C872.162 484.787 872.882 483.16 872.882 481.08C872.882 479.64 872.429 478.387 871.522 477.32C870.615 476.253 869.335 475.32 867.682 474.52C866.082 473.667 863.762 472.653 860.722 471.48C856.615 469.933 853.602 468.093 851.682 465.96C849.815 463.773 848.882 460.92 848.882 457.4C848.882 455.053 849.575 453 850.962 451.24C852.402 449.48 854.349 448.12 856.802 447.16C859.309 446.147 862.082 445.64 865.122 445.64C867.575 445.64 869.709 445.827 871.522 446.2C873.389 446.573 874.882 446.947 876.002 447.32C877.122 447.693 877.869 447.933 878.242 448.04V457.96H873.362L871.762 452.04C871.442 451.4 870.589 450.867 869.202 450.44C867.815 449.96 866.269 449.72 864.562 449.72C862.162 449.72 860.215 450.253 858.722 451.32C857.282 452.387 856.562 453.827 856.562 455.64C856.562 457.24 856.935 458.573 857.682 459.64C858.482 460.653 859.469 461.48 860.642 462.12C861.815 462.76 863.415 463.507 865.442 464.36L867.042 465C870.029 466.173 872.455 467.293 874.322 468.36C876.189 469.427 877.735 470.84 878.962 472.6C880.242 474.307 880.882 476.413 880.882 478.92C880.882 482.867 879.335 486.013 876.242 488.36C873.202 490.707 869.015 491.88 863.682 491.88C861.069 491.88 858.322 491.533 855.442 490.84C852.615 490.093 850.295 489.347 848.482 488.6V478.36H853.682L855.122 484.6ZM907.057 468.68C907.057 463.88 908.044 459.72 910.017 456.2C911.99 452.68 914.577 450.013 917.777 448.2C921.03 446.333 924.497 445.4 928.177 445.4C934.897 445.4 939.937 447.533 943.297 451.8C946.71 456.067 948.417 461.667 948.417 468.6C948.417 473.453 947.43 477.64 945.457 481.16C943.484 484.68 940.87 487.347 937.617 489.16C934.417 490.973 930.977 491.88 927.297 491.88C920.577 491.88 915.51 489.747 912.097 485.48C908.737 481.213 907.057 475.613 907.057 468.68ZM927.777 487.32C931.457 487.32 934.284 485.8 936.257 482.76C938.23 479.72 939.217 475.213 939.217 469.24C939.217 463.32 938.31 458.627 936.497 455.16C934.684 451.693 931.777 449.96 927.777 449.96C924.097 449.96 921.244 451.48 919.217 454.52C917.244 457.56 916.257 462.067 916.257 468.04C916.257 473.96 917.19 478.653 919.057 482.12C920.924 485.587 923.83 487.32 927.777 487.32ZM962.129 451.88H954.609V448.2L962.129 446.68V442.92C962.129 439.613 962.982 436.573 964.689 433.8C966.449 431.027 968.716 428.84 971.489 427.24C974.316 425.587 977.302 424.76 980.449 424.76C982.262 424.76 983.836 425 985.169 425.48V433.48C984.689 433.053 983.729 432.653 982.289 432.28C980.902 431.853 979.356 431.64 977.649 431.64C975.142 431.64 973.302 432.307 972.129 433.64C971.009 434.92 970.449 437.16 970.449 440.36V446.68H981.489V451.88H970.449V486.44L979.329 487.08V491H955.329V487.08L962.129 486.36V451.88ZM1001.44 491.8C998.4 491.8 996.133 491.107 994.64 489.72C993.147 488.333 992.4 485.96 992.4 482.6V451.88H986.64V448.28C986.907 448.227 987.653 448.04 988.88 447.72C990.107 447.4 990.933 447.107 991.36 446.84C992.213 446.36 992.88 445.4 993.36 443.96C993.787 442.947 994.293 441.32 994.88 439.08C995.467 436.84 995.813 435.507 995.92 435.08H1000.64L1000.8 446.6H1014.16V451.88H1000.8V476.44C1000.8 479.48 1000.88 481.613 1001.04 482.84C1001.25 484.067 1001.65 484.867 1002.24 485.24C1002.88 485.613 1003.95 485.8 1005.44 485.8C1006.88 485.8 1008.45 485.613 1010.16 485.24C1011.92 484.867 1013.28 484.467 1014.24 484.04L1015.44 487.64C1014.16 488.6 1012.08 489.533 1009.2 490.44C1006.37 491.347 1003.79 491.8 1001.44 491.8ZM1040.02 491.88C1033.56 491.88 1028.63 489.773 1025.22 485.56C1021.86 481.347 1020.18 475.72 1020.18 468.68C1020.18 464.04 1021.06 459.96 1022.82 456.44C1024.58 452.92 1027.03 450.2 1030.18 448.28C1033.38 446.36 1037 445.4 1041.06 445.4C1046.02 445.4 1049.86 446.787 1052.58 449.56C1055.35 452.28 1056.82 456.2 1056.98 461.32C1056.98 464.573 1056.79 467.053 1056.42 468.76H1028.9C1029 474.04 1030.23 478.307 1032.58 481.56C1034.92 484.76 1038.26 486.36 1042.58 486.36C1044.71 486.36 1046.92 485.987 1049.22 485.24C1051.56 484.44 1053.38 483.507 1054.66 482.44L1056.18 485.96C1054.63 487.56 1052.34 488.947 1049.3 490.12C1046.26 491.293 1043.16 491.88 1040.02 491.88ZM1048.18 464.52C1048.34 463.4 1048.42 462.253 1048.42 461.08C1048.36 457.613 1047.62 454.893 1046.18 452.92C1044.79 450.893 1042.58 449.88 1039.54 449.88C1036.44 449.88 1033.96 451 1032.1 453.24C1030.28 455.48 1029.24 459.24 1028.98 464.52H1048.18ZM1068.65 452.76L1062.89 451.32V447L1074.33 445.56H1074.57L1076.25 447V450.36L1076.17 452.28C1078.09 450.573 1080.63 449.027 1083.77 447.64C1086.92 446.253 1089.93 445.56 1092.81 445.56C1096.17 445.56 1098.76 446.2 1100.57 447.48C1102.44 448.76 1103.75 450.733 1104.49 453.4C1105.24 456.013 1105.61 459.56 1105.61 464.04V486.44L1111.21 487V491H1092.25V487.08L1097.21 486.44V463.96C1097.21 460.813 1097 458.36 1096.57 456.6C1096.15 454.787 1095.35 453.453 1094.17 452.6C1093 451.693 1091.29 451.24 1089.05 451.24C1087.13 451.24 1085.08 451.72 1082.89 452.68C1080.71 453.64 1078.76 454.76 1077.05 456.04V486.36L1082.49 487.08V491H1063.61V487.08L1068.65 486.36V452.76ZM140 689.26C137.387 689.26 135.427 688.747 134.12 687.72C132.907 686.693 132.3 685.013 132.3 682.68V677.92C129.22 681 125.347 683.707 120.68 686.04C116.107 688.373 111.487 689.54 106.82 689.54C98.14 689.54 91.98 687.207 88.34 682.54C84.7 677.873 82.88 670.173 82.88 659.44V618.84L75.04 616.6V610.44L94.64 608.62H94.78L97.44 610.3V658.32C97.44 663.733 97.8133 667.98 98.56 671.06C99.4 674.047 100.8 676.287 102.76 677.78C104.813 679.18 107.753 679.88 111.58 679.88C115.313 679.88 118.813 679.087 122.08 677.5C125.347 675.913 128.193 674.047 130.62 671.9V618.84L120.54 616.6V610.44L141.82 608.62H141.96L145.18 610.3V680.86H153.58L153.44 687.16C150.827 687.813 148.54 688.327 146.58 688.7C144.713 689.073 142.52 689.26 140 689.26ZM173.157 621.08L163.077 618.56V611L183.097 608.48H183.517L186.457 611V616.88L186.317 620.24C189.677 617.253 194.11 614.547 199.617 612.12C205.124 609.693 210.397 608.48 215.437 608.48C221.317 608.48 225.844 609.6 229.017 611.84C232.284 614.08 234.57 617.533 235.877 622.2C237.184 626.773 237.837 632.98 237.837 640.82V680.02L247.637 681V688H214.457V681.14L223.137 680.02V640.68C223.137 635.173 222.764 630.88 222.017 627.8C221.27 624.627 219.87 622.293 217.817 620.8C215.764 619.213 212.777 618.42 208.857 618.42C205.497 618.42 201.904 619.26 198.077 620.94C194.25 622.62 190.844 624.58 187.857 626.82V679.88L197.377 681.14V688H164.337V681.14L173.157 679.88V621.08ZM266.126 621.08L256.046 618.56V611L276.066 608.48H276.486L279.426 611V616.88L279.286 620.24C282.646 617.253 287.079 614.547 292.586 612.12C298.092 609.693 303.366 608.48 308.406 608.48C314.286 608.48 318.812 609.6 321.986 611.84C325.252 614.08 327.539 617.533 328.846 622.2C330.152 626.773 330.806 632.98 330.806 640.82V680.02L340.606 681V688H307.426V681.14L316.106 680.02V640.68C316.106 635.173 315.732 630.88 314.986 627.8C314.239 624.627 312.839 622.293 310.786 620.8C308.732 619.213 305.746 618.42 301.826 618.42C298.466 618.42 294.872 619.26 291.046 620.94C287.219 622.62 283.812 624.58 280.826 626.82V679.88L290.346 681.14V688H257.306V681.14L266.126 679.88V621.08ZM385.135 689.54C373.841 689.54 365.208 685.853 359.235 678.48C353.355 671.107 350.415 661.26 350.415 648.94C350.415 640.82 351.955 633.68 355.035 627.52C358.115 621.36 362.408 616.6 367.915 613.24C373.515 609.88 379.861 608.2 386.955 608.2C395.635 608.2 402.355 610.627 407.115 615.48C411.968 620.24 414.535 627.1 414.815 636.06C414.815 641.753 414.488 646.093 413.835 649.08H365.675C365.861 658.32 368.008 665.787 372.115 671.48C376.221 677.08 382.055 679.88 389.615 679.88C393.348 679.88 397.221 679.227 401.235 677.92C405.341 676.52 408.515 674.887 410.755 673.02L413.415 679.18C410.708 681.98 406.695 684.407 401.375 686.46C396.055 688.513 390.641 689.54 385.135 689.54ZM399.415 641.66C399.695 639.7 399.835 637.693 399.835 635.64C399.741 629.573 398.435 624.813 395.915 621.36C393.488 617.813 389.615 616.04 384.295 616.04C378.881 616.04 374.541 618 371.275 621.92C368.101 625.84 366.281 632.42 365.815 641.66H399.415ZM425.167 649.64C425.167 641.893 426.66 634.893 429.647 628.64C432.727 622.387 437.207 617.44 443.087 613.8C449.06 610.067 456.2 608.2 464.507 608.2C468.52 608.2 471.974 608.573 474.867 609.32C477.76 610.067 481.214 611.093 485.227 612.4L484.667 633.96H475.567L472.487 619.68C471.927 617.067 468.38 615.76 461.847 615.76C455.314 615.76 450.134 618.42 446.307 623.74C442.574 628.967 440.707 636.433 440.707 646.14C440.707 657.153 442.807 665.553 447.007 671.34C451.3 677.033 456.854 679.88 463.667 679.88C467.587 679.88 471.274 679.273 474.727 678.06C478.274 676.847 481.307 675.4 483.827 673.72L486.487 679.32C483.967 681.933 480.234 684.313 475.287 686.46C470.434 688.513 465.487 689.54 460.447 689.54C452.794 689.54 446.307 687.813 440.987 684.36C435.76 680.907 431.794 676.193 429.087 670.22C426.474 664.153 425.167 657.293 425.167 649.64ZM533.064 689.54C521.771 689.54 513.138 685.853 507.164 678.48C501.284 671.107 498.344 661.26 498.344 648.94C498.344 640.82 499.884 633.68 502.964 627.52C506.044 621.36 510.338 616.6 515.844 613.24C521.444 609.88 527.791 608.2 534.884 608.2C543.564 608.2 550.284 610.627 555.044 615.48C559.898 620.24 562.464 627.1 562.744 636.06C562.744 641.753 562.418 646.093 561.764 649.08H513.604C513.791 658.32 515.938 665.787 520.044 671.48C524.151 677.08 529.984 679.88 537.544 679.88C541.278 679.88 545.151 679.227 549.164 677.92C553.271 676.52 556.444 674.887 558.684 673.02L561.344 679.18C558.638 681.98 554.624 684.407 549.304 686.46C543.984 688.513 538.571 689.54 533.064 689.54ZM547.344 641.66C547.624 639.7 547.764 637.693 547.764 635.64C547.671 629.573 546.364 624.813 543.844 621.36C541.418 617.813 537.544 616.04 532.224 616.04C526.811 616.04 522.471 618 519.204 621.92C516.031 625.84 514.211 632.42 513.744 641.66H547.344ZM587.797 676.8C588.73 678.2 590.69 679.46 593.677 680.58C596.757 681.7 599.977 682.26 603.337 682.26C608.657 682.26 612.577 681.233 615.097 679.18C617.617 677.127 618.877 674.28 618.877 670.64C618.877 668.12 618.083 665.927 616.497 664.06C614.91 662.193 612.67 660.56 609.777 659.16C606.977 657.667 602.917 655.893 597.597 653.84C590.41 651.133 585.137 647.913 581.777 644.18C578.51 640.353 576.877 635.36 576.877 629.2C576.877 625.093 578.09 621.5 580.517 618.42C583.037 615.34 586.443 612.96 590.737 611.28C595.123 609.507 599.977 608.62 605.297 608.62C609.59 608.62 613.323 608.947 616.497 609.6C619.763 610.253 622.377 610.907 624.337 611.56C626.297 612.213 627.603 612.633 628.257 612.82V630.18H619.717L616.917 619.82C616.357 618.7 614.863 617.767 612.437 617.02C610.01 616.18 607.303 615.76 604.317 615.76C600.117 615.76 596.71 616.693 594.097 618.56C591.577 620.427 590.317 622.947 590.317 626.12C590.317 628.92 590.97 631.253 592.277 633.12C593.677 634.893 595.403 636.34 597.457 637.46C599.51 638.58 602.31 639.887 605.857 641.38L608.657 642.5C613.883 644.553 618.13 646.513 621.397 648.38C624.663 650.247 627.37 652.72 629.517 655.8C631.757 658.787 632.877 662.473 632.877 666.86C632.877 673.767 630.17 679.273 624.757 683.38C619.437 687.487 612.11 689.54 602.777 689.54C598.203 689.54 593.397 688.933 588.357 687.72C583.41 686.413 579.35 685.107 576.177 683.8V665.88H585.277L587.797 676.8ZM658.48 676.8C659.413 678.2 661.373 679.46 664.36 680.58C667.44 681.7 670.66 682.26 674.02 682.26C679.34 682.26 683.26 681.233 685.78 679.18C688.3 677.127 689.56 674.28 689.56 670.64C689.56 668.12 688.767 665.927 687.18 664.06C685.593 662.193 683.353 660.56 680.46 659.16C677.66 657.667 673.6 655.893 668.28 653.84C661.093 651.133 655.82 647.913 652.46 644.18C649.193 640.353 647.56 635.36 647.56 629.2C647.56 625.093 648.773 621.5 651.2 618.42C653.72 615.34 657.127 612.96 661.42 611.28C665.807 609.507 670.66 608.62 675.98 608.62C680.273 608.62 684.007 608.947 687.18 609.6C690.447 610.253 693.06 610.907 695.02 611.56C696.98 612.213 698.287 612.633 698.94 612.82V630.18H690.4L687.6 619.82C687.04 618.7 685.547 617.767 683.12 617.02C680.693 616.18 677.987 615.76 675 615.76C670.8 615.76 667.393 616.693 664.78 618.56C662.26 620.427 661 622.947 661 626.12C661 628.92 661.653 631.253 662.96 633.12C664.36 634.893 666.087 636.34 668.14 637.46C670.193 638.58 672.993 639.887 676.54 641.38L679.34 642.5C684.567 644.553 688.813 646.513 692.08 648.38C695.347 650.247 698.053 652.72 700.2 655.8C702.44 658.787 703.56 662.473 703.56 666.86C703.56 673.767 700.853 679.273 695.44 683.38C690.12 687.487 682.793 689.54 673.46 689.54C668.887 689.54 664.08 688.933 659.04 687.72C654.093 686.413 650.033 685.107 646.86 683.8V665.88H655.96L658.48 676.8ZM716.144 667C716.144 658.227 720.53 651.787 729.304 647.68C738.077 643.48 749.184 641.24 762.624 640.96V637.04C762.624 632.653 762.157 629.2 761.224 626.68C760.29 624.16 758.657 622.34 756.324 621.22C754.084 620.007 750.864 619.4 746.664 619.4C741.904 619.4 737.61 620.1 733.784 621.5C730.05 622.807 726.317 624.44 722.584 626.4L719.084 619.12C720.297 618.093 722.537 616.74 725.804 615.06C729.07 613.38 732.85 611.887 737.144 610.58C741.437 609.273 745.73 608.62 750.024 608.62C756.65 608.62 761.877 609.553 765.704 611.42C769.624 613.193 772.424 616.087 774.104 620.1C775.784 624.113 776.624 629.48 776.624 636.2V681.14H784.884V687.3C783.017 687.767 780.637 688.233 777.744 688.7C774.944 689.167 772.47 689.4 770.324 689.4C767.71 689.4 765.937 688.98 765.004 688.14C764.07 687.393 763.604 685.667 763.604 682.96V678.34C760.804 681.14 757.35 683.707 753.244 686.04C749.23 688.373 744.657 689.54 739.524 689.54C732.804 689.54 727.204 687.627 722.724 683.8C718.337 679.88 716.144 674.28 716.144 667ZM745.544 680.02C747.97 680.02 750.77 679.273 753.944 677.78C757.117 676.287 760.01 674.513 762.624 672.46V648.38C752.45 648.38 744.75 649.967 739.524 653.14C734.39 656.22 731.824 660.28 731.824 665.32C731.824 670.36 733.037 674.093 735.464 676.52C737.984 678.853 741.344 680.02 745.544 680.02ZM794.9 681.14L805.4 680.3V621.08L795.32 618.56V611L814.64 608.48H814.92L818 611V613.52L817.58 624.44H818C818.934 622.853 820.614 620.8 823.04 618.28C825.467 615.76 828.594 613.473 832.42 611.42C836.247 609.273 840.4 608.2 844.88 608.2C846.747 608.2 848.287 608.433 849.5 608.9V624.58C848.847 624.113 847.774 623.693 846.28 623.32C844.88 622.853 843.294 622.62 841.52 622.62C833.774 622.62 826.587 625 819.96 629.76V680.16L837.74 681.28V688H794.9V681.14ZM870.081 722.86C868.495 722.86 866.908 722.767 865.321 722.58C863.828 722.393 862.755 722.113 862.101 721.74V709.56C862.661 709.933 863.735 710.213 865.321 710.4C867.001 710.587 868.588 710.68 870.081 710.68C874.561 710.68 878.481 709.093 881.841 705.92C885.295 702.84 888.608 696.867 891.781 688H885.061L858.461 618.7L852.021 616.88V610.3H885.761V616.88L874.981 618.56L888.701 659.86L895.141 680.3L901.161 659.72L913.621 618.56L904.241 616.88V610.3H932.381V616.88L925.381 618.56C911.661 660.56 903.588 684.407 901.161 690.1C897.988 698.127 895.095 704.38 892.481 708.86C889.868 713.433 886.788 716.887 883.241 719.22C879.695 721.647 875.308 722.86 870.081 722.86ZM972.081 667C972.081 658.227 976.468 651.787 985.241 647.68C994.015 643.48 1005.12 641.24 1018.56 640.96V637.04C1018.56 632.653 1018.09 629.2 1017.16 626.68C1016.23 624.16 1014.59 622.34 1012.26 621.22C1010.02 620.007 1006.8 619.4 1002.6 619.4C997.841 619.4 993.548 620.1 989.721 621.5C985.988 622.807 982.255 624.44 978.521 626.4L975.021 619.12C976.235 618.093 978.475 616.74 981.741 615.06C985.008 613.38 988.788 611.887 993.081 610.58C997.375 609.273 1001.67 608.62 1005.96 608.62C1012.59 608.62 1017.81 609.553 1021.64 611.42C1025.56 613.193 1028.36 616.087 1030.04 620.1C1031.72 624.113 1032.56 629.48 1032.56 636.2V681.14H1040.82V687.3C1038.95 687.767 1036.57 688.233 1033.68 688.7C1030.88 689.167 1028.41 689.4 1026.26 689.4C1023.65 689.4 1021.87 688.98 1020.94 688.14C1020.01 687.393 1019.54 685.667 1019.54 682.96V678.34C1016.74 681.14 1013.29 683.707 1009.18 686.04C1005.17 688.373 1000.59 689.54 995.461 689.54C988.741 689.54 983.141 687.627 978.661 683.8C974.275 679.88 972.081 674.28 972.081 667ZM1001.48 680.02C1003.91 680.02 1006.71 679.273 1009.88 677.78C1013.05 676.287 1015.95 674.513 1018.56 672.46V648.38C1008.39 648.38 1000.69 649.967 995.461 653.14C990.328 656.22 987.761 660.28 987.761 665.32C987.761 670.36 988.975 674.093 991.401 676.52C993.921 678.853 997.281 680.02 1001.48 680.02ZM1058.96 621.08L1048.88 618.56V611L1068.9 608.48H1069.32L1072.26 611V616.88L1072.12 620.24C1075.48 617.253 1079.91 614.547 1085.42 612.12C1090.92 609.693 1096.2 608.48 1101.24 608.48C1107.12 608.48 1111.64 609.6 1114.82 611.84C1118.08 614.08 1120.37 617.533 1121.68 622.2C1122.98 626.773 1123.64 632.98 1123.64 640.82V680.02L1133.44 681V688H1100.26V681.14L1108.94 680.02V640.68C1108.94 635.173 1108.56 630.88 1107.82 627.8C1107.07 624.627 1105.67 622.293 1103.62 620.8C1101.56 619.213 1098.58 618.42 1094.66 618.42C1091.3 618.42 1087.7 619.26 1083.88 620.94C1080.05 622.62 1076.64 624.58 1073.66 626.82V679.88L1083.18 681.14V688H1050.14V681.14L1058.96 679.88V621.08ZM1173.77 689.54C1168.17 689.54 1163.03 688.14 1158.37 685.34C1153.7 682.54 1149.97 678.247 1147.17 672.46C1144.46 666.673 1143.11 659.533 1143.11 651.04C1143.11 643.107 1144.74 635.873 1148.01 629.34C1151.27 622.807 1155.94 617.673 1162.01 613.94C1168.17 610.113 1175.4 608.2 1183.71 608.2C1188.47 608.2 1192.81 608.713 1196.73 609.74V583.56L1182.45 581.88V575.86L1207.65 573.34H1208.07L1211.15 575.58V680.86H1219.27V687.3C1216.28 687.953 1213.67 688.467 1211.43 688.84C1209.28 689.213 1206.99 689.4 1204.57 689.4C1202.14 689.4 1200.41 688.98 1199.39 688.14C1198.36 687.3 1197.85 685.527 1197.85 682.82V678.34C1195.23 681.513 1191.78 684.173 1187.49 686.32C1183.29 688.467 1178.71 689.54 1173.77 689.54ZM1179.37 679.6C1183.01 679.6 1186.41 678.807 1189.59 677.22C1192.76 675.54 1195.14 673.627 1196.73 671.48V620.24C1195.98 619.12 1194.21 618.14 1191.41 617.3C1188.7 616.367 1185.81 615.9 1182.73 615.9C1175.45 615.9 1169.61 618.7 1165.23 624.3C1160.93 629.807 1158.79 638.347 1158.79 649.92C1158.79 660 1160.7 667.467 1164.53 672.32C1168.35 677.173 1173.3 679.6 1179.37 679.6ZM1272.1 621.08L1262.02 618.56V611L1282.04 608.48H1282.46L1285.4 611V616.88L1285.26 620.24C1288.62 617.253 1293.06 614.547 1298.56 612.12C1304.07 609.693 1309.34 608.48 1314.38 608.48C1320.26 608.48 1324.79 609.6 1327.96 611.84C1331.23 614.08 1333.52 617.533 1334.82 622.2C1336.13 626.773 1336.78 632.98 1336.78 640.82V680.02L1346.58 681V688H1313.4V681.14L1322.08 680.02V640.68C1322.08 635.173 1321.71 630.88 1320.96 627.8C1320.22 624.627 1318.82 622.293 1316.76 620.8C1314.71 619.213 1311.72 618.42 1307.8 618.42C1304.44 618.42 1300.85 619.26 1297.02 620.94C1293.2 622.62 1289.79 624.58 1286.8 626.82V679.88L1296.32 681.14V688H1263.28V681.14L1272.1 679.88V621.08ZM1391.11 689.54C1379.82 689.54 1371.18 685.853 1365.21 678.48C1359.33 671.107 1356.39 661.26 1356.39 648.94C1356.39 640.82 1357.93 633.68 1361.01 627.52C1364.09 621.36 1368.38 616.6 1373.89 613.24C1379.49 609.88 1385.84 608.2 1392.93 608.2C1401.61 608.2 1408.33 610.627 1413.09 615.48C1417.94 620.24 1420.51 627.1 1420.79 636.06C1420.79 641.753 1420.46 646.093 1419.81 649.08H1371.65C1371.84 658.32 1373.98 665.787 1378.09 671.48C1382.2 677.08 1388.03 679.88 1395.59 679.88C1399.32 679.88 1403.2 679.227 1407.21 677.92C1411.32 676.52 1414.49 674.887 1416.73 673.02L1419.39 679.18C1416.68 681.98 1412.67 684.407 1407.35 686.46C1402.03 688.513 1396.62 689.54 1391.11 689.54ZM1405.39 641.66C1405.67 639.7 1405.81 637.693 1405.81 635.64C1405.72 629.573 1404.41 624.813 1401.89 621.36C1399.46 617.813 1395.59 616.04 1390.27 616.04C1384.86 616.04 1380.52 618 1377.25 621.92C1374.08 625.84 1372.26 632.42 1371.79 641.66H1405.39ZM1466.28 725.8C1454.34 725.8 1445.66 723.887 1440.24 720.06C1434.92 716.327 1432.26 711.147 1432.26 704.52C1432.26 700.413 1433.52 696.633 1436.04 693.18C1438.66 689.727 1441.74 687.113 1445.28 685.34C1440.99 682.913 1438.84 678.993 1438.84 673.58C1438.84 670.22 1439.82 667.047 1441.78 664.06C1443.74 661.073 1446.31 658.787 1449.48 657.2C1444.82 655.147 1441.22 652.207 1438.7 648.38C1436.28 644.553 1435.06 640.027 1435.06 634.8C1435.06 629.387 1436.56 624.673 1439.54 620.66C1442.62 616.647 1446.64 613.567 1451.58 611.42C1456.62 609.273 1461.94 608.2 1467.54 608.2C1476.97 608.2 1484.34 610.16 1489.66 614.08C1491.06 612.68 1493.21 611.327 1496.1 610.02C1499 608.713 1502.08 608.06 1505.34 608.06H1510.1V620.38H1494.7C1496.94 623.833 1498.06 627.847 1498.06 632.42C1498.06 637.927 1496.66 642.827 1493.86 647.12C1491.16 651.32 1487.33 654.587 1482.38 656.92C1477.53 659.253 1472.02 660.42 1465.86 660.42C1461.85 660.42 1458.26 660 1455.08 659.16C1453.78 660.467 1452.7 661.913 1451.86 663.5C1451.02 665.087 1450.6 666.627 1450.6 668.12C1450.6 671.48 1451.72 673.813 1453.96 675.12C1456.2 676.333 1460.22 676.94 1466 676.94H1481.82C1490.88 676.94 1497.6 678.667 1501.98 682.12C1506.37 685.573 1508.56 690.473 1508.56 696.82C1508.56 702.14 1506.65 706.993 1502.82 711.38C1499 715.86 1493.82 719.36 1487.28 721.88C1480.84 724.493 1473.84 725.8 1466.28 725.8ZM1467.26 652.72C1477.9 652.72 1483.22 646.42 1483.22 633.82C1483.22 627.567 1481.82 622.993 1479.02 620.1C1476.32 617.113 1472.21 615.62 1466.7 615.62C1461.57 615.62 1457.51 617.067 1454.52 619.96C1451.54 622.76 1450.04 627.287 1450.04 633.54C1450.04 639.42 1451.44 644.087 1454.24 647.54C1457.14 650.993 1461.48 652.72 1467.26 652.72ZM1467.54 717.68C1472.12 717.68 1476.41 716.98 1480.42 715.58C1484.53 714.273 1487.84 712.267 1490.36 709.56C1492.88 706.947 1494.14 703.867 1494.14 700.32C1494.14 696.12 1493.02 693.04 1490.78 691.08C1488.54 689.213 1484.2 688.28 1477.76 688.28H1461.24C1457.51 688.28 1454.57 688.047 1452.42 687.58C1448.6 691.78 1446.68 696.493 1446.68 701.72C1446.68 706.947 1448.27 710.913 1451.44 713.62C1454.62 716.327 1459.98 717.68 1467.54 717.68ZM1517.86 667C1517.86 658.227 1522.25 651.787 1531.02 647.68C1539.8 643.48 1550.9 641.24 1564.34 640.96V637.04C1564.34 632.653 1563.88 629.2 1562.94 626.68C1562.01 624.16 1560.38 622.34 1558.04 621.22C1555.8 620.007 1552.58 619.4 1548.38 619.4C1543.62 619.4 1539.33 620.1 1535.5 621.5C1531.77 622.807 1528.04 624.44 1524.3 626.4L1520.8 619.12C1522.02 618.093 1524.26 616.74 1527.52 615.06C1530.79 613.38 1534.57 611.887 1538.86 610.58C1543.16 609.273 1547.45 608.62 1551.74 608.62C1558.37 608.62 1563.6 609.553 1567.42 611.42C1571.34 613.193 1574.14 616.087 1575.82 620.1C1577.5 624.113 1578.34 629.48 1578.34 636.2V681.14H1586.6V687.3C1584.74 687.767 1582.36 688.233 1579.46 688.7C1576.66 689.167 1574.19 689.4 1572.04 689.4C1569.43 689.4 1567.66 688.98 1566.72 688.14C1565.79 687.393 1565.32 685.667 1565.32 682.96V678.34C1562.52 681.14 1559.07 683.707 1554.96 686.04C1550.95 688.373 1546.38 689.54 1541.24 689.54C1534.52 689.54 1528.92 687.627 1524.44 683.8C1520.06 679.88 1517.86 674.28 1517.86 667ZM1547.26 680.02C1549.69 680.02 1552.49 679.273 1555.66 677.78C1558.84 676.287 1561.73 674.513 1564.34 672.46V648.38C1554.17 648.38 1546.47 649.967 1541.24 653.14C1536.11 656.22 1533.54 660.28 1533.54 665.32C1533.54 670.36 1534.76 674.093 1537.18 676.52C1539.7 678.853 1543.06 680.02 1547.26 680.02ZM1620.28 689.4C1614.96 689.4 1610.99 688.187 1608.38 685.76C1605.77 683.333 1604.46 679.18 1604.46 673.3V619.54H1594.38V613.24C1594.85 613.147 1596.15 612.82 1598.3 612.26C1600.45 611.7 1601.89 611.187 1602.64 610.72C1604.13 609.88 1605.3 608.2 1606.14 605.68C1606.89 603.907 1607.77 601.06 1608.8 597.14C1609.83 593.22 1610.43 590.887 1610.62 590.14H1618.88L1619.16 610.3H1642.54V619.54H1619.16V662.52C1619.16 667.84 1619.3 671.573 1619.58 673.72C1619.95 675.867 1620.65 677.267 1621.68 677.92C1622.8 678.573 1624.67 678.9 1627.28 678.9C1629.8 678.9 1632.55 678.573 1635.54 677.92C1638.62 677.267 1641 676.567 1642.68 675.82L1644.78 682.12C1642.54 683.8 1638.9 685.433 1633.86 687.02C1628.91 688.607 1624.39 689.4 1620.28 689.4ZM1669.87 596.3C1666.88 596.3 1664.64 595.46 1663.15 593.78C1661.66 592.1 1660.91 589.953 1660.91 587.34C1660.91 584.353 1661.8 581.88 1663.57 579.92C1665.44 577.96 1667.96 576.98 1671.13 576.98C1674.3 576.98 1676.64 577.82 1678.13 579.5C1679.62 581.18 1680.37 583.327 1680.37 585.94C1680.37 589.113 1679.44 591.633 1677.57 593.5C1675.8 595.367 1673.28 596.3 1670.01 596.3H1669.87ZM1664.27 621.08L1653.63 618.56V611.14L1675.33 608.48H1675.61L1678.83 611V680.02L1690.03 681.14V688H1652.93V681.14L1664.27 679.88V621.08ZM1693.53 610.3H1726.01V616.88L1716.07 618.7L1730.21 659.02L1736.09 676.8L1741.13 659.58L1755.27 618.7L1745.75 616.88V610.3H1774.17V616.88L1766.89 618.7L1739.87 689.12H1727.97L1699.83 618.7L1693.53 616.88V610.3ZM1813.98 689.54C1802.69 689.54 1794.06 685.853 1788.08 678.48C1782.2 671.107 1779.26 661.26 1779.26 648.94C1779.26 640.82 1780.8 633.68 1783.88 627.52C1786.96 621.36 1791.26 616.6 1796.76 613.24C1802.36 609.88 1808.71 608.2 1815.8 608.2C1824.48 608.2 1831.2 610.627 1835.96 615.48C1840.82 620.24 1843.38 627.1 1843.66 636.06C1843.66 641.753 1843.34 646.093 1842.68 649.08H1794.52C1794.71 658.32 1796.86 665.787 1800.96 671.48C1805.07 677.08 1810.9 679.88 1818.46 679.88C1822.2 679.88 1826.07 679.227 1830.08 677.92C1834.19 676.52 1837.36 674.887 1839.6 673.02L1842.26 679.18C1839.56 681.98 1835.54 684.407 1830.22 686.46C1824.9 688.513 1819.49 689.54 1813.98 689.54ZM1828.26 641.66C1828.54 639.7 1828.68 637.693 1828.68 635.64C1828.59 629.573 1827.28 624.813 1824.76 621.36C1822.34 617.813 1818.46 616.04 1813.14 616.04C1807.73 616.04 1803.39 618 1800.12 621.92C1796.95 625.84 1795.13 632.42 1794.66 641.66H1828.26Z" fill="black"/>
</svg>
