<svg width="1928" height="1088" viewBox="0 0 1928 1088" fill="none" xmlns="http://www.w3.org/2000/svg">
<g filter="url(#filter0_d)">
<rect x="4" width="1920" height="1080" fill="#F7F8E8"/>
<path d="M773.8 603.368L700.36 809H674.44L601 603.368H628.072L674.44 735.272C677.512 743.72 680.104 751.688 682.216 759.176C684.328 766.472 686.056 773.48 687.4 780.2C688.744 773.48 690.472 766.376 692.584 758.888C694.696 751.4 697.288 743.336 700.36 734.696L746.44 603.368H773.8ZM811.128 596.744C814.968 596.744 818.328 598.088 821.208 600.776C824.28 603.272 825.816 607.304 825.816 612.872C825.816 618.248 824.28 622.28 821.208 624.968C818.328 627.656 814.968 629 811.128 629C806.904 629 803.352 627.656 800.472 624.968C797.592 622.28 796.152 618.248 796.152 612.872C796.152 607.304 797.592 603.272 800.472 600.776C803.352 598.088 806.904 596.744 811.128 596.744ZM823.512 654.632V809H798.168V654.632H823.512ZM923.969 791.144C927.81 791.144 931.746 790.856 935.778 790.28C939.81 789.512 943.074 788.744 945.57 787.976V807.272C942.882 808.616 939.042 809.672 934.05 810.44C929.058 811.4 924.258 811.88 919.65 811.88C911.586 811.88 904.098 810.536 897.186 807.848C890.466 804.968 884.994 800.072 880.77 793.16C876.546 786.248 874.434 776.552 874.434 764.072V674.216H852.546V662.12L874.722 652.04L884.802 619.208H899.778V654.632H944.418V674.216H899.778V763.496C899.778 772.904 901.986 779.912 906.402 784.52C911.01 788.936 916.866 791.144 923.969 791.144ZM1036.1 651.752C1049.34 651.752 1060.67 654.632 1070.08 660.392C1079.68 666.152 1086.98 674.312 1091.97 684.872C1097.15 695.24 1099.74 707.432 1099.74 721.448V736.712H994.048C994.432 754.184 998.848 767.528 1007.3 776.744C1015.94 785.768 1027.94 790.28 1043.3 790.28C1053.09 790.28 1061.73 789.416 1069.22 787.688C1076.9 785.768 1084.77 783.08 1092.83 779.624V801.8C1084.96 805.256 1077.18 807.752 1069.5 809.288C1061.82 811.016 1052.7 811.88 1042.14 811.88C1027.55 811.88 1014.59 808.904 1003.26 802.952C992.128 797 983.392 788.168 977.056 776.456C970.912 764.552 967.84 750.056 967.84 732.968C967.84 716.072 970.624 701.576 976.192 689.48C981.952 677.384 989.92 668.072 1000.1 661.544C1010.46 655.016 1022.46 651.752 1036.1 651.752ZM1035.81 672.488C1023.71 672.488 1014.11 676.424 1007.01 684.296C1000.1 691.976 995.968 702.728 994.624 716.552H1073.25C1073.06 703.496 1069.98 692.936 1064.03 684.872C1058.08 676.616 1048.67 672.488 1035.81 672.488ZM1137.03 612.872C1137.03 607.304 1138.47 603.272 1141.35 600.776C1144.23 598.088 1147.78 596.744 1152 596.744C1155.84 596.744 1159.2 598.088 1162.08 600.776C1165.15 603.272 1166.69 607.304 1166.69 612.872C1166.69 618.248 1165.15 622.28 1162.08 624.968C1159.2 627.656 1155.84 629 1152 629C1147.78 629 1144.23 627.656 1141.35 624.968C1138.47 622.28 1137.03 618.248 1137.03 612.872ZM1120.9 878.12C1116.1 878.12 1111.87 877.736 1108.23 876.968C1104.58 876.392 1101.41 875.624 1098.72 874.664V854.216C1101.6 854.984 1104.58 855.656 1107.65 856.232C1110.72 856.808 1114.08 857.096 1117.73 857.096C1123.87 857.096 1128.96 855.368 1132.99 851.912C1137.03 848.648 1139.04 842.312 1139.04 832.904V654.632H1164.39V832.04C1164.39 846.44 1160.93 857.672 1154.02 865.736C1147.11 873.992 1136.07 878.12 1120.9 878.12ZM1313.8 766.376C1313.8 781.352 1308.24 792.68 1297.1 800.36C1285.96 808.04 1270.99 811.88 1252.17 811.88C1241.42 811.88 1232.11 811.016 1224.24 809.288C1216.56 807.56 1209.74 805.16 1203.79 802.088V779.048C1209.93 782.12 1217.32 785 1225.96 787.688C1234.8 790.184 1243.72 791.432 1252.75 791.432C1265.61 791.432 1274.92 789.416 1280.68 785.384C1286.44 781.16 1289.32 775.592 1289.32 768.68C1289.32 764.84 1288.27 761.384 1286.16 758.312C1284.04 755.24 1280.2 752.168 1274.64 749.096C1269.26 746.024 1261.48 742.568 1251.31 738.728C1241.32 734.888 1232.78 731.048 1225.68 727.208C1218.57 723.368 1213.1 718.76 1209.26 713.384C1205.42 708.008 1203.5 701.096 1203.5 692.648C1203.5 679.592 1208.78 669.512 1219.34 662.408C1230.09 655.304 1244.11 651.752 1261.39 651.752C1270.8 651.752 1279.53 652.712 1287.6 654.632C1295.85 656.36 1303.53 658.856 1310.64 662.12L1302 682.28C1295.47 679.592 1288.65 677.288 1281.55 675.368C1274.44 673.448 1267.15 672.488 1259.66 672.488C1249.29 672.488 1241.32 674.216 1235.76 677.672C1230.38 680.936 1227.69 685.448 1227.69 691.208C1227.69 695.432 1228.94 699.08 1231.44 702.152C1233.93 705.032 1238.06 707.912 1243.82 710.792C1249.77 713.48 1257.64 716.744 1267.44 720.584C1277.23 724.232 1285.58 727.976 1292.49 731.816C1299.4 735.656 1304.68 740.36 1308.33 745.928C1311.98 751.304 1313.8 758.12 1313.8 766.376Z" fill="black"/>
<path d="M1158.64 182.525L974.643 511.545C970.844 518.338 961.084 518.378 957.228 511.618L769.582 182.556C765.381 175.19 771.68 166.266 780.028 167.759L964.223 200.682C965.398 200.892 966.601 200.89 967.776 200.676L1148.12 167.806C1156.44 166.289 1162.77 175.143 1158.64 182.525Z" fill="url(#paint0_linear)"/>
<path d="M1051.96 124.574L915.801 151.255C913.563 151.694 911.906 153.59 911.771 155.866L903.395 297.33C903.198 300.662 906.258 303.248 909.51 302.498L947.42 293.749C950.967 292.931 954.172 296.055 953.443 299.622L942.18 354.775C941.422 358.487 944.907 361.661 948.532 360.56L971.947 353.446C975.577 352.344 979.065 355.527 978.297 359.242L960.398 445.875C959.278 451.294 966.486 454.249 969.492 449.603L971.5 446.5L1082.45 225.072C1084.31 221.364 1081.11 217.137 1077.04 217.923L1038.01 225.454C1034.35 226.161 1031.23 222.746 1032.26 219.158L1057.73 130.867C1058.77 127.273 1055.64 123.855 1051.96 124.574Z" fill="url(#paint1_linear)"/>
</g>
<defs>
<filter id="filter0_d" x="0" y="0" width="1928" height="1088" filterUnits="userSpaceOnUse" color-interpolation-filters="sRGB">
<feFlood flood-opacity="0" result="BackgroundImageFix"/>
<feColorMatrix in="SourceAlpha" type="matrix" values="0 0 0 0 0 0 0 0 0 0 0 0 0 0 0 0 0 0 127 0"/>
<feOffset dy="4"/>
<feGaussianBlur stdDeviation="2"/>
<feColorMatrix type="matrix" values="0 0 0 0 0 0 0 0 0 0 0 0 0 0 0 0 0 0 0.25 0"/>
<feBlend mode="normal" in2="BackgroundImageFix" result="effect1_dropShadow"/>
<feBlend mode="normal" in="SourceGraphic" in2="effect1_dropShadow" result="shape"/>
</filter>
<linearGradient id="paint0_linear" x1="765" y1="156" x2="994" y2="467" gradientUnits="userSpaceOnUse">
<stop stop-color="#41D1FF"/>
<stop offset="1" stop-color="#BD34FE"/>
</linearGradient>
<linearGradient id="paint1_linear" x1="953.651" y1="131.818" x2="995.076" y2="415.989" gradientUnits="userSpaceOnUse">
<stop stop-color="#FFEA83"/>
<stop offset="0.0833333" stop-color="#FFDD35"/>
<stop offset="1" stop-color="#FFA800"/>
</linearGradient>
</defs>
</svg>
