<svg width="1920" height="1080" viewBox="0 0 1920 1080" fill="none" xmlns="http://www.w3.org/2000/svg">
<rect width="1920" height="1080" fill="#F7F8E8"/>
<path d="M142.1 326.9L109.42 328.04L102.77 367.75H90.23L93.46 316.83H211.83L214.11 367.75H202.14L195.87 328.04L163 326.9V446.79L189.98 448.69V458H117.4V448.69L142.1 446.79V326.9ZM237.363 316.26L221.403 314.17V306L252.373 302.39H252.753L256.933 305.24V349.32L256.173 365.47C260.226 361.797 265.799 358.313 272.893 355.02C279.986 351.727 287.143 350.08 294.363 350.08C302.343 350.08 308.549 351.6 312.983 354.64C317.416 357.68 320.519 362.367 322.293 368.7C324.066 374.907 324.953 383.33 324.953 393.97V446.98L338.253 448.69V458H292.843V448.69L305.193 446.98V393.78C305.193 386.307 304.686 380.48 303.673 376.3C302.659 371.993 300.759 368.827 297.973 366.8C295.186 364.647 291.006 363.57 285.433 363.57C280.873 363.57 275.996 364.71 270.803 366.99C265.609 369.27 261.049 371.93 257.123 374.97V446.98L270.233 448.69V458H225.963V448.69L237.363 447.17V316.26ZM399.087 460.09C383.76 460.09 372.044 455.087 363.937 445.08C355.957 435.073 351.967 421.71 351.967 404.99C351.967 393.97 354.057 384.28 358.237 375.92C362.417 367.56 368.244 361.1 375.717 356.54C383.317 351.98 391.93 349.7 401.557 349.7C413.337 349.7 422.457 352.993 428.917 359.58C435.504 366.04 438.987 375.35 439.367 387.51C439.367 395.237 438.924 401.127 438.037 405.18H372.677C372.93 417.72 375.844 427.853 381.417 435.58C386.99 443.18 394.907 446.98 405.167 446.98C410.234 446.98 415.49 446.093 420.937 444.32C426.51 442.42 430.817 440.203 433.857 437.67L437.467 446.03C433.794 449.83 428.347 453.123 421.127 455.91C413.907 458.697 406.56 460.09 399.087 460.09ZM418.467 395.11C418.847 392.45 419.037 389.727 419.037 386.94C418.91 378.707 417.137 372.247 413.717 367.56C410.424 362.747 405.167 360.34 397.947 360.34C390.6 360.34 384.71 363 380.277 368.32C375.97 373.64 373.5 382.57 372.867 395.11H418.467ZM83.39 555.83H134.88V565.33L117.02 567.61L143.05 656.15L148.56 682.56L154.83 656.15L176.68 583.76L171.55 567.61L158.06 565.33V555.83H211.45V565.33L192.83 567.61L218.48 656.15L224.94 684.65L230.26 656.15L254.2 567.61L235.39 565.33V555.83H280.61V565.33L268.07 567.61L230.26 697.95H211.64L182.57 602.76L154.45 697.95H136.4L95.93 567.8L83.39 565.33V555.83ZM332.29 699.09C316.963 699.09 305.247 694.087 297.14 684.08C289.16 674.073 285.17 660.71 285.17 643.99C285.17 632.97 287.26 623.28 291.44 614.92C295.62 606.56 301.447 600.1 308.92 595.54C316.52 590.98 325.133 588.7 334.76 588.7C346.54 588.7 355.66 591.993 362.12 598.58C368.707 605.04 372.19 614.35 372.57 626.51C372.57 634.237 372.127 640.127 371.24 644.18H305.88C306.133 656.72 309.047 666.853 314.62 674.58C320.193 682.18 328.11 685.98 338.37 685.98C343.437 685.98 348.693 685.093 354.14 683.32C359.713 681.42 364.02 679.203 367.06 676.67L370.67 685.03C366.997 688.83 361.55 692.123 354.33 694.91C347.11 697.697 339.763 699.09 332.29 699.09ZM351.67 634.11C352.05 631.45 352.24 628.727 352.24 625.94C352.113 617.707 350.34 611.247 346.92 606.56C343.627 601.747 338.37 599.34 331.15 599.34C323.803 599.34 317.913 602 313.48 607.32C309.173 612.64 306.703 621.57 306.07 634.11H351.67ZM411.32 572.55C407.266 572.55 404.226 571.41 402.2 569.13C400.173 566.85 399.16 563.937 399.16 560.39C399.16 556.337 400.363 552.98 402.77 550.32C405.303 547.66 408.723 546.33 413.03 546.33C417.336 546.33 420.503 547.47 422.53 549.75C424.556 552.03 425.57 554.943 425.57 558.49C425.57 562.797 424.303 566.217 421.77 568.75C419.363 571.283 415.943 572.55 411.51 572.55H411.32ZM403.72 606.18L389.28 602.76V592.69L418.73 589.08H419.11L423.48 592.5V686.17L438.68 687.69V697H388.33V687.69L403.72 685.98V606.18ZM497.581 748.3C481.368 748.3 469.588 745.703 462.241 740.51C455.021 735.443 451.411 728.413 451.411 719.42C451.411 713.847 453.121 708.717 456.541 704.03C460.088 699.343 464.268 695.797 469.081 693.39C463.254 690.097 460.341 684.777 460.341 677.43C460.341 672.87 461.671 668.563 464.331 664.51C466.991 660.457 470.474 657.353 474.781 655.2C468.448 652.413 463.571 648.423 460.151 643.23C456.858 638.037 455.211 631.893 455.211 624.8C455.211 617.453 457.238 611.057 461.291 605.61C465.471 600.163 470.918 595.983 477.631 593.07C484.471 590.157 491.691 588.7 499.291 588.7C512.084 588.7 522.091 591.36 529.311 596.68C531.211 594.78 534.124 592.943 538.051 591.17C541.978 589.397 546.158 588.51 550.591 588.51H557.051V605.23H536.151C539.191 609.917 540.711 615.363 540.711 621.57C540.711 629.043 538.811 635.693 535.011 641.52C531.338 647.22 526.144 651.653 519.431 654.82C512.844 657.987 505.371 659.57 497.011 659.57C491.564 659.57 486.688 659 482.381 657.86C480.608 659.633 479.151 661.597 478.011 663.75C476.871 665.903 476.301 667.993 476.301 670.02C476.301 674.58 477.821 677.747 480.861 679.52C483.901 681.167 489.348 681.99 497.201 681.99H518.671C530.958 681.99 540.078 684.333 546.031 689.02C551.984 693.707 554.961 700.357 554.961 708.97C554.961 716.19 552.364 722.777 547.171 728.73C541.978 734.81 534.948 739.56 526.081 742.98C517.341 746.527 507.841 748.3 497.581 748.3ZM498.911 649.12C513.351 649.12 520.571 640.57 520.571 623.47C520.571 614.983 518.671 608.777 514.871 604.85C511.198 600.797 505.624 598.77 498.151 598.77C491.184 598.77 485.674 600.733 481.621 604.66C477.568 608.46 475.541 614.603 475.541 623.09C475.541 631.07 477.441 637.403 481.241 642.09C485.168 646.777 491.058 649.12 498.911 649.12ZM499.291 737.28C505.498 737.28 511.324 736.33 516.771 734.43C522.344 732.657 526.841 729.933 530.261 726.26C533.681 722.713 535.391 718.533 535.391 713.72C535.391 708.02 533.871 703.84 530.831 701.18C527.791 698.647 521.901 697.38 513.161 697.38H490.741C485.674 697.38 481.684 697.063 478.771 696.43C473.578 702.13 470.981 708.527 470.981 715.62C470.981 722.713 473.134 728.097 477.441 731.77C481.748 735.443 489.031 737.28 499.291 737.28ZM577.841 555.26L561.881 553.17V545L592.851 541.39H593.231L597.411 544.24V588.32L596.651 604.47C600.705 600.797 606.278 597.313 613.371 594.02C620.465 590.727 627.621 589.08 634.841 589.08C642.821 589.08 649.028 590.6 653.461 593.64C657.895 596.68 660.998 601.367 662.771 607.7C664.545 613.907 665.431 622.33 665.431 632.97V685.98L678.731 687.69V697H633.321V687.69L645.671 685.98V632.78C645.671 625.307 645.165 619.48 644.151 615.3C643.138 610.993 641.238 607.827 638.451 605.8C635.665 603.647 631.485 602.57 625.911 602.57C621.351 602.57 616.475 603.71 611.281 605.99C606.088 608.27 601.528 610.93 597.601 613.97V685.98L610.711 687.69V697H566.441V687.69L577.841 686.17V555.26ZM725.315 698.9C718.095 698.9 712.712 697.253 709.165 693.96C705.619 690.667 703.845 685.03 703.845 677.05V604.09H690.165V595.54C690.799 595.413 692.572 594.97 695.485 594.21C698.399 593.45 700.362 592.753 701.375 592.12C703.402 590.98 704.985 588.7 706.125 585.28C707.139 582.873 708.342 579.01 709.735 573.69C711.129 568.37 711.952 565.203 712.205 564.19H723.415L723.795 591.55H755.525V604.09H723.795V662.42C723.795 669.64 723.985 674.707 724.365 677.62C724.872 680.533 725.822 682.433 727.215 683.32C728.735 684.207 731.269 684.65 734.815 684.65C738.235 684.65 741.972 684.207 746.025 683.32C750.205 682.433 753.435 681.483 755.715 680.47L758.565 689.02C755.525 691.3 750.585 693.517 743.745 695.67C737.032 697.823 730.889 698.9 725.315 698.9ZM815.286 643.99C815.286 632.59 817.63 622.71 822.316 614.35C827.003 605.99 833.146 599.657 840.746 595.35C848.473 590.917 856.706 588.7 865.446 588.7C881.406 588.7 893.376 593.767 901.356 603.9C909.463 614.033 913.516 627.333 913.516 643.8C913.516 655.327 911.173 665.27 906.486 673.63C901.8 681.99 895.593 688.323 887.866 692.63C880.266 696.937 872.096 699.09 863.356 699.09C847.396 699.09 835.363 694.023 827.256 683.89C819.276 673.757 815.286 660.457 815.286 643.99ZM864.496 688.26C873.236 688.26 879.95 684.65 884.636 677.43C889.323 670.21 891.666 659.507 891.666 645.32C891.666 631.26 889.513 620.113 885.206 611.88C880.9 603.647 873.996 599.53 864.496 599.53C855.756 599.53 848.98 603.14 844.166 610.36C839.48 617.58 837.136 628.283 837.136 642.47C837.136 656.53 839.353 667.677 843.786 675.91C848.22 684.143 855.123 688.26 864.496 688.26ZM946.082 604.09H928.222V595.35L946.082 591.74V582.81C946.082 574.957 948.109 567.737 952.162 561.15C956.342 554.563 961.725 549.37 968.312 545.57C975.025 541.643 982.119 539.68 989.592 539.68C993.899 539.68 997.635 540.25 1000.8 541.39V560.39C999.662 559.377 997.382 558.427 993.962 557.54C990.669 556.527 986.995 556.02 982.942 556.02C976.989 556.02 972.619 557.603 969.832 560.77C967.172 563.81 965.842 569.13 965.842 576.73V591.74H992.062V604.09H965.842V686.17L986.932 687.69V697H929.932V687.69L946.082 685.98V604.09ZM1068 567.61L1051.66 565.33V555.83H1153.31L1155.21 588.13H1142.86L1137.16 567.04L1088.33 565.71V620.81L1122.72 620.24L1125.95 604.47H1136.02V648.93H1126.14L1122.72 632.4L1088.33 631.64V685.79L1117.97 687.69V697H1052.8V687.69L1068 685.79V567.61ZM1216.42 699.09C1201.09 699.09 1189.38 694.087 1181.27 684.08C1173.29 674.073 1169.3 660.71 1169.3 643.99C1169.3 632.97 1171.39 623.28 1175.57 614.92C1179.75 606.56 1185.58 600.1 1193.05 595.54C1200.65 590.98 1209.26 588.7 1218.89 588.7C1230.67 588.7 1239.79 591.993 1246.25 598.58C1252.84 605.04 1256.32 614.35 1256.7 626.51C1256.7 634.237 1256.26 640.127 1255.37 644.18H1190.01C1190.26 656.72 1193.18 666.853 1198.75 674.58C1204.32 682.18 1212.24 685.98 1222.5 685.98C1227.57 685.98 1232.82 685.093 1238.27 683.32C1243.84 681.42 1248.15 679.203 1251.19 676.67L1254.8 685.03C1251.13 688.83 1245.68 692.123 1238.46 694.91C1231.24 697.697 1223.89 699.09 1216.42 699.09ZM1235.8 634.11C1236.18 631.45 1236.37 628.727 1236.37 625.94C1236.24 617.707 1234.47 611.247 1231.05 606.56C1227.76 601.747 1222.5 599.34 1215.28 599.34C1207.93 599.34 1202.04 602 1197.61 607.32C1193.3 612.64 1190.83 621.57 1190.2 634.11H1235.8ZM1319.77 699.09C1304.44 699.09 1292.73 694.087 1284.62 684.08C1276.64 674.073 1272.65 660.71 1272.65 643.99C1272.65 632.97 1274.74 623.28 1278.92 614.92C1283.1 606.56 1288.93 600.1 1296.4 595.54C1304 590.98 1312.61 588.7 1322.24 588.7C1334.02 588.7 1343.14 591.993 1349.6 598.58C1356.19 605.04 1359.67 614.35 1360.05 626.51C1360.05 634.237 1359.61 640.127 1358.72 644.18H1293.36C1293.61 656.72 1296.53 666.853 1302.1 674.58C1307.67 682.18 1315.59 685.98 1325.85 685.98C1330.92 685.98 1336.17 685.093 1341.62 683.32C1347.19 681.42 1351.5 679.203 1354.54 676.67L1358.15 685.03C1354.48 688.83 1349.03 692.123 1341.81 694.91C1334.59 697.697 1327.24 699.09 1319.77 699.09ZM1339.15 634.11C1339.53 631.45 1339.72 628.727 1339.72 625.94C1339.59 617.707 1337.82 611.247 1334.4 606.56C1331.11 601.747 1325.85 599.34 1318.63 599.34C1311.28 599.34 1305.39 602 1300.96 607.32C1296.65 612.64 1294.18 621.57 1293.55 634.11H1339.15ZM1390.25 555.26L1374.86 553.17V545L1405.45 541.39H1405.83L1410.01 544.24V686.17L1426.16 687.69V697H1374.86V687.69L1390.25 685.98V555.26ZM1462.07 572.55C1458.02 572.55 1454.98 571.41 1452.95 569.13C1450.92 566.85 1449.91 563.937 1449.91 560.39C1449.91 556.337 1451.11 552.98 1453.52 550.32C1456.05 547.66 1459.47 546.33 1463.78 546.33C1468.09 546.33 1471.25 547.47 1473.28 549.75C1475.31 552.03 1476.32 554.943 1476.32 558.49C1476.32 562.797 1475.05 566.217 1472.52 568.75C1470.11 571.283 1466.69 572.55 1462.26 572.55H1462.07ZM1454.47 606.18L1440.03 602.76V592.69L1469.48 589.08H1469.86L1474.23 592.5V686.17L1489.43 687.69V697H1439.08V687.69L1454.47 685.98V606.18ZM1514.32 606.18L1500.64 602.76V592.5L1527.81 589.08H1528.38L1532.37 592.5V600.48L1532.18 605.04C1536.74 600.987 1542.76 597.313 1550.23 594.02C1557.71 590.727 1564.86 589.08 1571.7 589.08C1579.68 589.08 1585.83 590.6 1590.13 593.64C1594.57 596.68 1597.67 601.367 1599.44 607.7C1601.22 613.907 1602.1 622.33 1602.1 632.97V686.17L1615.4 687.5V697H1570.37V687.69L1582.15 686.17V632.78C1582.15 625.307 1581.65 619.48 1580.63 615.3C1579.62 610.993 1577.72 607.827 1574.93 605.8C1572.15 603.647 1568.09 602.57 1562.77 602.57C1558.21 602.57 1553.34 603.71 1548.14 605.99C1542.95 608.27 1538.33 610.93 1534.27 613.97V685.98L1547.19 687.69V697H1502.35V687.69L1514.32 685.98V606.18ZM1674.5 748.3C1658.29 748.3 1646.51 745.703 1639.16 740.51C1631.94 735.443 1628.33 728.413 1628.33 719.42C1628.33 713.847 1630.04 708.717 1633.46 704.03C1637.01 699.343 1641.19 695.797 1646 693.39C1640.18 690.097 1637.26 684.777 1637.26 677.43C1637.26 672.87 1638.59 668.563 1641.25 664.51C1643.91 660.457 1647.4 657.353 1651.7 655.2C1645.37 652.413 1640.49 648.423 1637.07 643.23C1633.78 638.037 1632.13 631.893 1632.13 624.8C1632.13 617.453 1634.16 611.057 1638.21 605.61C1642.39 600.163 1647.84 595.983 1654.55 593.07C1661.39 590.157 1668.61 588.7 1676.21 588.7C1689.01 588.7 1699.01 591.36 1706.23 596.68C1708.13 594.78 1711.05 592.943 1714.97 591.17C1718.9 589.397 1723.08 588.51 1727.51 588.51H1733.97V605.23H1713.07C1716.11 609.917 1717.63 615.363 1717.63 621.57C1717.63 629.043 1715.73 635.693 1711.93 641.52C1708.26 647.22 1703.07 651.653 1696.35 654.82C1689.77 657.987 1682.29 659.57 1673.93 659.57C1668.49 659.57 1663.61 659 1659.3 657.86C1657.53 659.633 1656.07 661.597 1654.93 663.75C1653.79 665.903 1653.22 667.993 1653.22 670.02C1653.22 674.58 1654.74 677.747 1657.78 679.52C1660.82 681.167 1666.27 681.99 1674.12 681.99H1695.59C1707.88 681.99 1717 684.333 1722.95 689.02C1728.91 693.707 1731.88 700.357 1731.88 708.97C1731.88 716.19 1729.29 722.777 1724.09 728.73C1718.9 734.81 1711.87 739.56 1703 742.98C1694.26 746.527 1684.76 748.3 1674.5 748.3ZM1675.83 649.12C1690.27 649.12 1697.49 640.57 1697.49 623.47C1697.49 614.983 1695.59 608.777 1691.79 604.85C1688.12 600.797 1682.55 598.77 1675.07 598.77C1668.11 598.77 1662.6 600.733 1658.54 604.66C1654.49 608.46 1652.46 614.603 1652.46 623.09C1652.46 631.07 1654.36 637.403 1658.16 642.09C1662.09 646.777 1667.98 649.12 1675.83 649.12ZM1676.21 737.28C1682.42 737.28 1688.25 736.33 1693.69 734.43C1699.27 732.657 1703.76 729.933 1707.18 726.26C1710.6 722.713 1712.31 718.533 1712.31 713.72C1712.31 708.02 1710.79 703.84 1707.75 701.18C1704.71 698.647 1698.82 697.38 1690.08 697.38H1667.66C1662.6 697.38 1658.61 697.063 1655.69 696.43C1650.5 702.13 1647.9 708.527 1647.9 715.62C1647.9 722.713 1650.06 728.097 1654.36 731.77C1658.67 735.443 1665.95 737.28 1676.21 737.28ZM1762.18 681.8C1763.44 683.7 1766.1 685.41 1770.16 686.93C1774.34 688.45 1778.71 689.21 1783.27 689.21C1790.49 689.21 1795.81 687.817 1799.23 685.03C1802.65 682.243 1804.36 678.38 1804.36 673.44C1804.36 670.02 1803.28 667.043 1801.13 664.51C1798.97 661.977 1795.93 659.76 1792.01 657.86C1788.21 655.833 1782.7 653.427 1775.48 650.64C1765.72 646.967 1758.57 642.597 1754.01 637.53C1749.57 632.337 1747.36 625.56 1747.36 617.2C1747.36 611.627 1749 606.75 1752.3 602.57C1755.72 598.39 1760.34 595.16 1766.17 592.88C1772.12 590.473 1778.71 589.27 1785.93 589.27C1791.75 589.27 1796.82 589.713 1801.13 590.6C1805.56 591.487 1809.11 592.373 1811.77 593.26C1814.43 594.147 1816.2 594.717 1817.09 594.97V618.53H1805.5L1801.7 604.47C1800.94 602.95 1798.91 601.683 1795.62 600.67C1792.32 599.53 1788.65 598.96 1784.6 598.96C1778.9 598.96 1774.27 600.227 1770.73 602.76C1767.31 605.293 1765.6 608.713 1765.6 613.02C1765.6 616.82 1766.48 619.987 1768.26 622.52C1770.16 624.927 1772.5 626.89 1775.29 628.41C1778.07 629.93 1781.87 631.703 1786.69 633.73L1790.49 635.25C1797.58 638.037 1803.34 640.697 1807.78 643.23C1812.21 645.763 1815.88 649.12 1818.8 653.3C1821.84 657.353 1823.36 662.357 1823.36 668.31C1823.36 677.683 1819.68 685.157 1812.34 690.73C1805.12 696.303 1795.17 699.09 1782.51 699.09C1776.3 699.09 1769.78 698.267 1762.94 696.62C1756.22 694.847 1750.71 693.073 1746.41 691.3V666.98H1758.76L1762.18 681.8Z" fill="black"/>
</svg>
