<svg width="1920" height="1080" viewBox="0 0 1920 1080" fill="none" xmlns="http://www.w3.org/2000/svg">
<rect width="1920" height="1080" fill="#F8ECE8"/>
<path d="M120.219 338.143H174.148V348.093L155.442 350.481L182.705 443.215L188.476 470.876L195.043 443.215L217.928 367.396L212.555 350.481L198.426 348.093V338.143H254.345V348.093L234.843 350.481L261.708 443.215L268.474 473.065L274.046 443.215L299.12 350.481L279.419 348.093V338.143H326.781V348.093L313.647 350.481L274.046 486.995H254.544L224.097 387.296L194.645 486.995H175.74L133.353 350.68L120.219 348.093V338.143ZM342.701 337.546L325.985 335.357V326.8L358.422 323.019H358.82L363.198 326.004V372.172L362.402 389.087C366.647 385.24 372.485 381.591 379.914 378.142C387.343 374.693 394.839 372.968 402.401 372.968C410.759 372.968 417.26 374.56 421.903 377.744C426.546 380.928 429.797 385.837 431.654 392.47C433.511 398.971 434.44 407.793 434.44 418.937V474.458L448.37 476.249V486H400.809V476.249L413.744 474.458V418.738C413.744 410.911 413.213 404.808 412.152 400.43C411.091 395.919 409.101 392.603 406.182 390.48C403.263 388.225 398.885 387.097 393.048 387.097C388.272 387.097 383.164 388.291 377.725 390.679C372.286 393.067 367.51 395.853 363.397 399.037V474.458L377.128 476.249V486H330.761V476.249L342.701 474.657V337.546ZM479.251 535.551C476.995 535.551 474.74 535.418 472.485 535.153C470.362 534.888 468.836 534.49 467.908 533.959V516.646C468.704 517.177 470.229 517.575 472.485 517.84C474.873 518.105 477.128 518.238 479.251 518.238C485.619 518.238 491.191 515.983 495.967 511.472C500.875 507.094 505.585 498.603 510.096 486H500.544L462.734 387.495L453.58 384.908V375.555H501.539V384.908L486.216 387.296L505.718 446.001L514.872 475.055L523.429 445.802L541.14 387.296L527.807 384.908V375.555H567.806V384.908L557.856 387.296C538.354 446.996 526.878 480.892 523.429 488.985C518.918 500.394 514.805 509.283 511.091 515.651C507.376 522.152 502.998 527.06 497.957 530.377C492.915 533.826 486.68 535.551 479.251 535.551ZM621.848 431.474C621.848 420.463 623.971 410.513 628.216 401.624C632.594 392.735 638.962 385.704 647.32 380.53C655.811 375.223 665.96 372.57 677.767 372.57C683.472 372.57 688.381 373.101 692.493 374.162C696.606 375.223 701.515 376.683 707.219 378.54L706.423 409.186H693.488L689.11 388.888C688.314 385.173 683.273 383.316 673.986 383.316C664.7 383.316 657.337 387.097 651.897 394.659C646.591 402.088 643.937 412.702 643.937 426.499C643.937 442.154 646.922 454.094 652.892 462.319C658.995 470.412 666.889 474.458 676.573 474.458C682.145 474.458 687.386 473.596 692.294 471.871C697.336 470.146 701.647 468.09 705.229 465.702L709.01 473.662C705.428 477.377 700.122 480.76 693.09 483.811C686.192 486.73 679.16 488.189 671.996 488.189C661.118 488.189 651.897 485.735 644.335 480.826C636.906 475.917 631.268 469.218 627.42 460.727C623.706 452.104 621.848 442.353 621.848 431.474ZM726.263 456.15C726.263 443.679 732.498 434.525 744.969 428.688C757.439 422.718 773.227 419.534 792.331 419.136V413.564C792.331 407.329 791.667 402.42 790.341 398.838C789.014 395.256 786.692 392.669 783.376 391.077C780.192 389.352 775.615 388.49 769.645 388.49C762.879 388.49 756.776 389.485 751.337 391.475C746.03 393.332 740.723 395.654 735.417 398.44L730.442 388.092C732.166 386.633 735.35 384.709 739.994 382.321C744.637 379.933 750.01 377.81 756.113 375.953C762.215 374.096 768.318 373.167 774.421 373.167C783.84 373.167 791.269 374.494 796.709 377.147C802.281 379.668 806.261 383.78 808.649 389.485C811.037 395.19 812.231 402.818 812.231 412.37V476.249H823.972V485.005C821.318 485.668 817.935 486.332 813.823 486.995C809.843 487.658 806.327 487.99 803.276 487.99C799.561 487.99 797.04 487.393 795.714 486.199C794.387 485.138 793.724 482.683 793.724 478.836V472.269C789.744 476.249 784.835 479.897 778.998 483.214C773.293 486.531 766.792 488.189 759.496 488.189C749.944 488.189 741.984 485.469 735.616 480.03C729.38 474.458 726.263 466.498 726.263 456.15ZM768.053 474.657C771.502 474.657 775.482 473.596 779.993 471.473C784.503 469.35 788.616 466.83 792.331 463.911V429.683C777.87 429.683 766.925 431.938 759.496 436.449C752.199 440.827 748.551 446.598 748.551 453.762C748.551 460.926 750.275 466.233 753.725 469.682C757.307 472.999 762.083 474.657 768.053 474.657ZM849.751 390.878L835.423 387.296V376.55L863.88 372.968H864.477L868.656 376.55V384.908L868.457 389.684C873.233 385.439 879.535 381.591 887.362 378.142C895.19 374.693 902.685 372.968 909.849 372.968C918.207 372.968 924.642 374.56 929.152 377.744C933.796 380.928 937.046 385.837 938.903 392.47C940.761 398.971 941.689 407.793 941.689 418.937V474.657L955.619 476.05V486H908.456V476.249L920.794 474.657V418.738C920.794 410.911 920.264 404.808 919.202 400.43C918.141 395.919 916.151 392.603 913.232 390.48C910.314 388.225 906.068 387.097 900.496 387.097C895.72 387.097 890.613 388.291 885.173 390.679C879.734 393.067 874.892 395.853 870.646 399.037V474.458L884.178 476.249V486H837.214V476.249L849.751 474.458V390.878ZM1002.6 395.256H989.462L985.681 321.427H1006.77L1002.6 395.256ZM1074.14 487.99C1066.58 487.99 1060.94 486.265 1057.23 482.816C1053.51 479.367 1051.66 473.463 1051.66 465.105V388.689H1037.33V379.734C1037.99 379.601 1039.85 379.137 1042.9 378.341C1045.95 377.545 1048.01 376.815 1049.07 376.152C1051.19 374.958 1052.85 372.57 1054.05 368.988C1055.11 366.467 1056.37 362.421 1057.83 356.849C1059.29 351.277 1060.15 347.96 1060.41 346.899H1072.15L1072.55 375.555H1105.79V388.689H1072.55V449.782C1072.55 457.344 1072.75 462.651 1073.15 465.702C1073.68 468.753 1074.67 470.743 1076.13 471.672C1077.73 472.601 1080.38 473.065 1084.09 473.065C1087.68 473.065 1091.59 472.601 1095.84 471.672C1100.21 470.743 1103.6 469.748 1105.98 468.687L1108.97 477.642C1105.79 480.03 1100.61 482.352 1093.45 484.607C1086.42 486.862 1079.98 487.99 1074.14 487.99ZM1184.5 535.551C1182.24 535.551 1179.99 535.418 1177.73 535.153C1175.61 534.888 1174.08 534.49 1173.15 533.959V516.646C1173.95 517.177 1175.47 517.575 1177.73 517.84C1180.12 518.105 1182.37 518.238 1184.5 518.238C1190.86 518.238 1196.44 515.983 1201.21 511.472C1206.12 507.094 1210.83 498.603 1215.34 486H1205.79L1167.98 387.495L1158.82 384.908V375.555H1206.78V384.908L1191.46 387.296L1210.96 446.001L1220.12 475.055L1228.67 445.802L1246.38 387.296L1233.05 384.908V375.555H1273.05V384.908L1263.1 387.296C1243.6 446.996 1232.12 480.892 1228.67 488.985C1224.16 500.394 1220.05 509.283 1216.34 515.651C1212.62 522.152 1208.24 527.06 1203.2 530.377C1198.16 533.826 1191.93 535.551 1184.5 535.551ZM1282.26 430.479C1282.26 418.539 1284.71 408.191 1289.62 399.435C1294.53 390.679 1300.96 384.046 1308.92 379.535C1317.02 374.892 1325.64 372.57 1334.79 372.57C1351.51 372.57 1364.05 377.877 1372.4 388.49C1380.9 399.103 1385.14 413.033 1385.14 430.28C1385.14 442.353 1382.69 452.767 1377.78 461.523C1372.87 470.279 1366.37 476.912 1358.28 481.423C1350.32 485.934 1341.76 488.189 1332.6 488.189C1315.89 488.189 1303.29 482.882 1294.79 472.269C1286.44 461.656 1282.26 447.726 1282.26 430.479ZM1333.8 476.846C1342.95 476.846 1349.98 473.065 1354.89 465.503C1359.8 457.941 1362.26 446.731 1362.26 431.872C1362.26 417.146 1360 405.471 1355.49 396.848C1350.98 388.225 1343.75 383.913 1333.8 383.913C1324.64 383.913 1317.55 387.694 1312.51 395.256C1307.6 402.818 1305.14 414.028 1305.14 428.887C1305.14 443.613 1307.46 455.288 1312.11 463.911C1316.75 472.534 1323.98 476.846 1333.8 476.846ZM1493.87 487.791C1490.16 487.791 1487.37 487.061 1485.52 485.602C1483.79 484.143 1482.93 481.755 1482.93 478.438V471.672C1478.55 476.05 1473.05 479.897 1466.41 483.214C1459.91 486.531 1453.34 488.189 1446.71 488.189C1434.37 488.189 1425.62 484.872 1420.44 478.239C1415.27 471.606 1412.68 460.661 1412.68 445.404V387.694L1401.54 384.51V375.754L1429.4 373.167H1429.6L1433.38 375.555V443.812C1433.38 451.507 1433.91 457.543 1434.97 461.921C1436.16 466.166 1438.15 469.35 1440.94 471.473C1443.86 473.463 1448.04 474.458 1453.48 474.458C1458.78 474.458 1463.76 473.33 1468.4 471.075C1473.05 468.82 1477.09 466.166 1480.54 463.115V387.694L1466.21 384.51V375.754L1496.46 373.167H1496.66L1501.24 375.555V475.851H1513.18L1512.98 484.806C1509.26 485.735 1506.01 486.464 1503.23 486.995C1500.57 487.526 1497.46 487.791 1493.87 487.791ZM1566.94 326.8L1598.78 323.019H1599.17L1603.75 326.004V385.903C1607.73 382.056 1612.44 378.872 1617.88 376.351C1623.45 373.83 1629.62 372.57 1636.39 372.57C1644.35 372.57 1651.58 374.494 1658.08 378.341C1664.71 382.188 1669.95 388.158 1673.8 396.251C1677.78 404.344 1679.77 414.559 1679.77 426.897C1679.77 438.306 1677.38 448.654 1672.6 457.941C1667.96 467.228 1661.26 474.591 1652.51 480.03C1643.75 485.469 1633.6 488.189 1622.06 488.189C1612.9 488.189 1604.55 487.327 1596.98 485.602C1589.42 483.745 1584.85 482.086 1583.25 480.627V337.347L1566.94 335.158V326.8ZM1628.23 386.699C1623.19 386.699 1618.48 387.893 1614.1 390.281C1609.85 392.536 1606.4 395.123 1603.75 398.042V471.274C1604.55 473.131 1606.8 474.657 1610.52 475.851C1614.36 476.912 1618.68 477.443 1623.45 477.443C1633.67 477.443 1641.89 473.33 1648.13 465.105C1654.36 456.88 1657.48 444.873 1657.48 429.086C1657.48 414.891 1654.76 404.277 1649.32 397.246C1643.88 390.215 1636.85 386.699 1628.23 386.699ZM1746.12 488.189C1730.07 488.189 1717.79 482.949 1709.3 472.468C1700.95 461.987 1696.77 447.991 1696.77 430.479C1696.77 418.937 1698.96 408.788 1703.33 400.032C1707.71 391.276 1713.81 384.51 1721.64 379.734C1729.6 374.958 1738.62 372.57 1748.71 372.57C1761.04 372.57 1770.6 376.019 1777.36 382.918C1784.26 389.684 1787.91 399.435 1788.31 412.171C1788.31 420.264 1787.84 426.433 1786.91 430.678H1718.46C1718.72 443.812 1721.77 454.425 1727.61 462.518C1733.45 470.478 1741.74 474.458 1752.49 474.458C1757.79 474.458 1763.3 473.529 1769 471.672C1774.84 469.682 1779.35 467.36 1782.54 464.707L1786.32 473.463C1782.47 477.443 1776.76 480.892 1769.2 483.811C1761.64 486.73 1753.95 488.189 1746.12 488.189ZM1766.42 420.131C1766.81 417.345 1767.01 414.493 1767.01 411.574C1766.88 402.951 1765.02 396.185 1761.44 391.276C1757.99 386.235 1752.49 383.714 1744.92 383.714C1737.23 383.714 1731.06 386.5 1726.42 392.072C1721.91 397.644 1719.32 406.997 1718.66 420.131H1766.42ZM166.984 737.99C159.422 737.99 153.784 736.265 150.069 732.816C146.354 729.367 144.497 723.463 144.497 715.105V638.689H130.169V629.734C130.832 629.601 132.69 629.137 135.741 628.341C138.792 627.545 140.849 626.815 141.91 626.152C144.033 624.958 145.691 622.57 146.885 618.988C147.946 616.467 149.207 612.421 150.666 606.849C152.125 601.277 152.988 597.96 153.253 596.899H164.994L165.392 625.555H198.625V638.689H165.392V699.782C165.392 707.344 165.591 712.651 165.989 715.702C166.52 718.753 167.515 720.743 168.974 721.672C170.566 722.601 173.219 723.065 176.934 723.065C180.516 723.065 184.43 722.601 188.675 721.672C193.053 720.743 196.436 719.748 198.824 718.687L201.809 727.642C198.625 730.03 193.451 732.352 186.287 734.607C179.256 736.862 172.821 737.99 166.984 737.99ZM214.391 726.249L229.316 725.055V640.878L214.988 637.296V626.55L242.45 622.968H242.848L247.226 626.55V630.132L246.629 645.654H247.226C248.553 643.399 250.941 640.48 254.39 636.898C257.839 633.316 262.284 630.066 267.723 627.147C273.162 624.096 279.066 622.57 285.434 622.57C288.087 622.57 290.276 622.902 292.001 623.565V645.853C291.072 645.19 289.547 644.593 287.424 644.062C285.434 643.399 283.179 643.067 280.658 643.067C269.647 643.067 259.431 646.45 250.012 653.216V724.856L275.285 726.448V736H214.391V726.249ZM395.682 737.791C391.967 737.791 389.181 737.061 387.324 735.602C385.599 734.143 384.737 731.755 384.737 728.438V721.672C380.359 726.05 374.853 729.897 368.22 733.214C361.719 736.531 355.152 738.189 348.519 738.189C336.181 738.189 327.425 734.872 322.251 728.239C317.077 721.606 314.49 710.661 314.49 695.404V637.694L303.346 634.51V625.754L331.206 623.167H331.405L335.186 625.555V693.812C335.186 701.507 335.716 707.543 336.778 711.921C337.972 716.166 339.962 719.35 342.748 721.473C345.666 723.463 349.845 724.458 355.285 724.458C360.591 724.458 365.566 723.33 370.21 721.075C374.853 718.82 378.899 716.166 382.349 713.115V637.694L368.021 634.51V625.754L398.269 623.167H398.468L403.045 625.555V725.851H414.985L414.786 734.806C411.071 735.735 407.821 736.464 405.035 736.995C402.381 737.526 399.264 737.791 395.682 737.791ZM445.399 587.546L429.28 585.357V576.8L461.319 573.019H461.717L466.095 576.004V724.657L483.01 726.249V736H429.28V726.249L445.399 724.458V587.546ZM513.26 785.551C511.004 785.551 508.749 785.418 506.494 785.153C504.371 784.888 502.845 784.49 501.917 783.959V766.646C502.713 767.177 504.238 767.575 506.494 767.84C508.882 768.105 511.137 768.238 513.26 768.238C519.628 768.238 525.2 765.983 529.976 761.472C534.884 757.094 539.594 748.603 544.105 736H534.553L496.743 637.495L487.589 634.908V625.555H535.548V634.908L520.225 637.296L539.727 696.001L548.881 725.055L557.438 695.802L575.149 637.296L561.816 634.908V625.555H601.815V634.908L591.865 637.296C572.363 696.996 560.887 730.892 557.438 738.985C552.927 750.394 548.814 759.283 545.1 765.651C541.385 772.152 537.007 777.06 531.966 780.377C526.924 783.826 520.689 785.551 513.26 785.551ZM668.991 587.546L652.275 585.357V576.8L684.712 573.019H685.11L689.488 576.004V622.172L688.692 639.087C692.937 635.24 698.775 631.591 706.204 628.142C713.633 624.693 721.129 622.968 728.691 622.968C737.049 622.968 743.55 624.56 748.193 627.744C752.836 630.928 756.087 635.837 757.944 642.47C759.801 648.971 760.73 657.793 760.73 668.937V724.458L774.66 726.249V736H727.099V726.249L740.034 724.458V668.738C740.034 660.911 739.503 654.808 738.442 650.43C737.381 645.919 735.391 642.603 732.472 640.48C729.553 638.225 725.175 637.097 719.338 637.097C714.562 637.097 709.454 638.291 704.015 640.679C698.576 643.067 693.8 645.853 689.687 649.037V724.458L703.418 726.249V736H657.051V726.249L668.991 724.657V587.546ZM789.422 706.15C789.422 693.679 795.657 684.525 808.128 678.688C820.598 672.718 836.386 669.534 855.49 669.136V663.564C855.49 657.329 854.826 652.42 853.5 648.838C852.173 645.256 849.851 642.669 846.535 641.077C843.351 639.352 838.774 638.49 832.804 638.49C826.038 638.49 819.935 639.485 814.496 641.475C809.189 643.332 803.882 645.654 798.576 648.44L793.601 638.092C795.325 636.633 798.509 634.709 803.153 632.321C807.796 629.933 813.169 627.81 819.272 625.953C825.374 624.096 831.477 623.167 837.58 623.167C846.999 623.167 854.428 624.494 859.868 627.147C865.44 629.668 869.42 633.78 871.808 639.485C874.196 645.19 875.39 652.818 875.39 662.37V726.249H887.131V735.005C884.477 735.668 881.094 736.332 876.982 736.995C873.002 737.658 869.486 737.99 866.435 737.99C862.72 737.99 860.199 737.393 858.873 736.199C857.546 735.138 856.883 732.683 856.883 728.836V722.269C852.903 726.249 847.994 729.897 842.157 733.214C836.452 736.531 829.951 738.189 822.655 738.189C813.103 738.189 805.143 735.469 798.775 730.03C792.539 724.458 789.422 716.498 789.422 706.15ZM831.212 724.657C834.661 724.657 838.641 723.596 843.152 721.473C847.662 719.35 851.775 716.83 855.49 713.911V679.683C841.029 679.683 830.084 681.938 822.655 686.449C815.358 690.827 811.71 696.598 811.71 703.762C811.71 710.926 813.434 716.233 816.884 719.682C820.466 722.999 825.242 724.657 831.212 724.657ZM1008.63 676.897C1008.63 688.174 1006.31 698.522 1001.66 707.941C997.021 717.228 990.388 724.591 981.765 730.03C973.141 735.469 963.059 738.189 951.517 738.189C948.333 738.189 944.883 737.924 941.169 737.393C937.454 736.862 934.469 736.199 932.214 735.403L932.811 752.119V772.218L953.507 774.407V784.158H897.986V774.407L912.314 772.218V640.878L897.787 637.296V626.55L926.045 622.968H926.443L930.622 626.55V638.291C934.602 633.913 939.51 630.198 945.348 627.147C951.318 624.096 957.951 622.57 965.248 622.57C973.075 622.57 980.239 624.494 986.74 628.341C993.373 632.188 998.68 638.158 1002.66 646.251C1006.64 654.344 1008.63 664.559 1008.63 676.897ZM957.089 636.5C952.047 636.5 947.338 637.561 942.96 639.684C938.582 641.807 935.199 644.128 932.811 646.649V721.672C933.739 723.264 936.061 724.723 939.776 726.05C943.623 727.244 947.802 727.841 952.313 727.841C962.528 727.841 970.753 723.795 976.989 715.702C983.357 707.609 986.541 695.404 986.541 679.086C986.541 664.758 983.755 654.078 978.183 647.047C972.743 640.016 965.712 636.5 957.089 636.5ZM1133.59 676.897C1133.59 688.174 1131.27 698.522 1126.62 707.941C1121.98 717.228 1115.35 724.591 1106.72 730.03C1098.1 735.469 1088.02 738.189 1076.47 738.189C1073.29 738.189 1069.84 737.924 1066.13 737.393C1062.41 736.862 1059.43 736.199 1057.17 735.403L1057.77 752.119V772.218L1078.46 774.407V784.158H1022.94V774.407L1037.27 772.218V640.878L1022.74 637.296V626.55L1051 622.968H1051.4L1055.58 626.55V638.291C1059.56 633.913 1064.47 630.198 1070.31 627.147C1076.28 624.096 1082.91 622.57 1090.21 622.57C1098.03 622.57 1105.2 624.494 1111.7 628.341C1118.33 632.188 1123.64 638.158 1127.62 646.251C1131.6 654.344 1133.59 664.559 1133.59 676.897ZM1082.05 636.5C1077.01 636.5 1072.3 637.561 1067.92 639.684C1063.54 641.807 1060.16 644.128 1057.77 646.649V721.672C1058.7 723.264 1061.02 724.723 1064.73 726.05C1068.58 727.244 1072.76 727.841 1077.27 727.841C1087.49 727.841 1095.71 723.795 1101.95 715.702C1108.31 707.609 1111.5 695.404 1111.5 679.086C1111.5 664.758 1108.71 654.078 1103.14 647.047C1097.7 640.016 1090.67 636.5 1082.05 636.5ZM1167.01 785.551C1164.75 785.551 1162.49 785.418 1160.24 785.153C1158.12 784.888 1156.59 784.49 1155.66 783.959V766.646C1156.46 767.177 1157.98 767.575 1160.24 767.84C1162.63 768.105 1164.88 768.238 1167.01 768.238C1173.37 768.238 1178.95 765.983 1183.72 761.472C1188.63 757.094 1193.34 748.603 1197.85 736H1188.3L1150.49 637.495L1141.33 634.908V625.555H1189.29V634.908L1173.97 637.296L1193.47 696.001L1202.63 725.055L1211.18 695.802L1228.89 637.296L1215.56 634.908V625.555H1255.56V634.908L1245.61 637.296C1226.11 696.996 1214.63 730.892 1211.18 738.985C1206.67 750.394 1202.56 759.283 1198.85 765.651C1195.13 772.152 1190.75 777.06 1185.71 780.377C1180.67 783.826 1174.43 785.551 1167.01 785.551ZM1360.95 738.189C1344.89 738.189 1332.62 732.949 1324.13 722.468C1315.77 711.987 1311.59 697.991 1311.59 680.479C1311.59 668.937 1313.78 658.788 1318.16 650.032C1322.54 641.276 1328.64 634.51 1336.47 629.734C1344.43 624.958 1353.45 622.57 1363.53 622.57C1375.87 622.57 1385.42 626.019 1392.19 632.918C1399.09 639.684 1402.74 649.435 1403.13 662.171C1403.13 670.264 1402.67 676.433 1401.74 680.678H1333.28C1333.55 693.812 1336.6 704.425 1342.44 712.518C1348.28 720.478 1356.57 724.458 1367.31 724.458C1372.62 724.458 1378.13 723.529 1383.83 721.672C1389.67 719.682 1394.18 717.36 1397.36 714.707L1401.14 723.463C1397.3 727.443 1391.59 730.892 1384.03 733.811C1376.47 736.73 1368.77 738.189 1360.95 738.189ZM1381.24 670.131C1381.64 667.345 1381.84 664.493 1381.84 661.574C1381.71 652.951 1379.85 646.185 1376.27 641.276C1372.82 636.235 1367.31 633.714 1359.75 633.714C1352.06 633.714 1345.89 636.5 1341.24 642.072C1336.73 647.644 1334.15 656.997 1333.48 670.131H1381.24ZM1411.08 625.555H1457.25V634.908L1443.12 637.495L1463.22 694.807L1471.58 720.08L1478.74 695.603L1498.84 637.495L1485.31 634.908V625.555H1525.71V634.908L1515.36 637.495L1476.95 737.592H1460.04L1420.04 637.495L1411.08 634.908V625.555ZM1582.29 738.189C1566.24 738.189 1553.97 732.949 1545.48 722.468C1537.12 711.987 1532.94 697.991 1532.94 680.479C1532.94 668.937 1535.13 658.788 1539.51 650.032C1543.89 641.276 1549.99 634.51 1557.82 629.734C1565.78 624.958 1574.8 622.57 1584.88 622.57C1597.22 622.57 1606.77 626.019 1613.54 632.918C1620.44 639.684 1624.08 649.435 1624.48 662.171C1624.48 670.264 1624.02 676.433 1623.09 680.678H1554.63C1554.9 693.812 1557.95 704.425 1563.79 712.518C1569.62 720.478 1577.92 724.458 1588.66 724.458C1593.97 724.458 1599.47 723.529 1605.18 721.672C1611.02 719.682 1615.53 717.36 1618.71 714.707L1622.49 723.463C1618.64 727.443 1612.94 730.892 1605.38 733.811C1597.82 736.73 1590.12 738.189 1582.29 738.189ZM1602.59 670.131C1602.99 667.345 1603.19 664.493 1603.19 661.574C1603.06 652.951 1601.2 646.185 1597.62 641.276C1594.17 636.235 1588.66 633.714 1581.1 633.714C1573.41 633.714 1567.24 636.5 1562.59 642.072C1558.08 647.644 1555.5 656.997 1554.83 670.131H1602.59ZM1641.98 726.249L1656.91 725.055V640.878L1642.58 637.296V626.55L1670.04 622.968H1670.44L1674.82 626.55V630.132L1674.22 645.654H1674.82C1676.14 643.399 1678.53 640.48 1681.98 636.898C1685.43 633.316 1689.88 630.066 1695.31 627.147C1700.75 624.096 1706.66 622.57 1713.03 622.57C1715.68 622.57 1717.87 622.902 1719.59 623.565V645.853C1718.66 645.19 1717.14 644.593 1715.02 644.062C1713.03 643.399 1710.77 643.067 1708.25 643.067C1697.24 643.067 1687.02 646.45 1677.6 653.216V724.856L1702.88 726.448V736H1641.98V726.249Z" fill="black"/>
</svg>
